<svg viewBox="0 0 512 512" xmlns="http://www.w3.org/2000/svg">
<defs>
  <linearGradient id="grad" x1="0%" y1="0%" x2="100%" y2="100%">
    <stop offset="0%" stop-color="#60A5FA"/>
    <stop offset="30%" stop-color="#3B82F6"/>
    <stop offset="100%" stop-color="#1D4ED8"/>
  </linearGradient>
</defs>
<circle cx="256" cy="256" r="256" fill="#0A0A0A"/>
<circle cx="256" cy="256" r="230" fill="url(#grad)" opacity="0.05"/>
<circle cx="256" cy="256" r="220" fill="none" stroke="url(#grad)" stroke-width="6"/>
<circle cx="146" cy="256" r="110" fill="none" stroke="url(#grad)" stroke-width="5"/>
<circle cx="91" cy="256" r="55" fill="none" stroke="url(#grad)" stroke-width="4"/>
<circle cx="63.5" cy="256" r="27.5" fill="none" stroke="url(#grad)" stroke-width="3"/>
<circle cx="49.75" cy="256" r="13.75" fill="none" stroke="url(#grad)" stroke-width="2"/>
<circle cx="77.25" cy="256" r="13.75" fill="none" stroke="url(#grad)" stroke-width="2"/>
<circle cx="63.5" cy="242.25" r="13.75" fill="none" stroke="url(#grad)" stroke-width="2"/>
<circle cx="63.5" cy="269.75" r="13.75" fill="none" stroke="url(#grad)" stroke-width="2"/>
<circle cx="118.5" cy="256" r="27.5" fill="none" stroke="url(#grad)" stroke-width="3"/>
<circle cx="104.75" cy="256" r="13.75" fill="none" stroke="url(#grad)" stroke-width="2"/>
<circle cx="132.25" cy="256" r="13.75" fill="none" stroke="url(#grad)" stroke-width="2"/>
<circle cx="118.5" cy="242.25" r="13.75" fill="none" stroke="url(#grad)" stroke-width="2"/>
<circle cx="118.5" cy="269.75" r="13.75" fill="none" stroke="url(#grad)" stroke-width="2"/>
<circle cx="91" cy="228.5" r="27.5" fill="none" stroke="url(#grad)" stroke-width="3"/>
<circle cx="77.25" cy="228.5" r="13.75" fill="none" stroke="url(#grad)" stroke-width="2"/>
<circle cx="104.75" cy="228.5" r="13.75" fill="none" stroke="url(#grad)" stroke-width="2"/>
<circle cx="91" cy="214.75" r="13.75" fill="none" stroke="url(#grad)" stroke-width="2"/>
<circle cx="91" cy="242.25" r="13.75" fill="none" stroke="url(#grad)" stroke-width="2"/>
<circle cx="91" cy="283.5" r="27.5" fill="none" stroke="url(#grad)" stroke-width="3"/>
<circle cx="77.25" cy="283.5" r="13.75" fill="none" stroke="url(#grad)" stroke-width="2"/>
<circle cx="104.75" cy="283.5" r="13.75" fill="none" stroke="url(#grad)" stroke-width="2"/>
<circle cx="91" cy="269.75" r="13.75" fill="none" stroke="url(#grad)" stroke-width="2"/>
<circle cx="91" cy="297.25" r="13.75" fill="none" stroke="url(#grad)" stroke-width="2"/>
<circle cx="201" cy="256" r="55" fill="none" stroke="url(#grad)" stroke-width="4"/>
<circle cx="173.5" cy="256" r="27.5" fill="none" stroke="url(#grad)" stroke-width="3"/>
<circle cx="159.75" cy="256" r="13.75" fill="none" stroke="url(#grad)" stroke-width="2"/>
<circle cx="187.25" cy="256" r="13.75" fill="none" stroke="url(#grad)" stroke-width="2"/>
<circle cx="173.5" cy="242.25" r="13.75" fill="none" stroke="url(#grad)" stroke-width="2"/>
<circle cx="173.5" cy="269.75" r="13.75" fill="none" stroke="url(#grad)" stroke-width="2"/>
<circle cx="228.5" cy="256" r="27.5" fill="none" stroke="url(#grad)" stroke-width="3"/>
<circle cx="214.75" cy="256" r="13.75" fill="none" stroke="url(#grad)" stroke-width="2"/>
<circle cx="242.25" cy="256" r="13.75" fill="none" stroke="url(#grad)" stroke-width="2"/>
<circle cx="228.5" cy="242.25" r="13.75" fill="none" stroke="url(#grad)" stroke-width="2"/>
<circle cx="228.5" cy="269.75" r="13.75" fill="none" stroke="url(#grad)" stroke-width="2"/>
<circle cx="201" cy="228.5" r="27.5" fill="none" stroke="url(#grad)" stroke-width="3"/>
<circle cx="187.25" cy="228.5" r="13.75" fill="none" stroke="url(#grad)" stroke-width="2"/>
<circle cx="214.75" cy="228.5" r="13.75" fill="none" stroke="url(#grad)" stroke-width="2"/>
<circle cx="201" cy="214.75" r="13.75" fill="none" stroke="url(#grad)" stroke-width="2"/>
<circle cx="201" cy="242.25" r="13.75" fill="none" stroke="url(#grad)" stroke-width="2"/>
<circle cx="201" cy="283.5" r="27.5" fill="none" stroke="url(#grad)" stroke-width="3"/>
<circle cx="187.25" cy="283.5" r="13.75" fill="none" stroke="url(#grad)" stroke-width="2"/>
<circle cx="214.75" cy="283.5" r="13.75" fill="none" stroke="url(#grad)" stroke-width="2"/>
<circle cx="201" cy="269.75" r="13.75" fill="none" stroke="url(#grad)" stroke-width="2"/>
<circle cx="201" cy="297.25" r="13.75" fill="none" stroke="url(#grad)" stroke-width="2"/>
<circle cx="146" cy="201" r="55" fill="none" stroke="url(#grad)" stroke-width="4"/>
<circle cx="118.5" cy="201" r="27.5" fill="none" stroke="url(#grad)" stroke-width="3"/>
<circle cx="104.75" cy="201" r="13.75" fill="none" stroke="url(#grad)" stroke-width="2"/>
<circle cx="132.25" cy="201" r="13.75" fill="none" stroke="url(#grad)" stroke-width="2"/>
<circle cx="118.5" cy="187.25" r="13.75" fill="none" stroke="url(#grad)" stroke-width="2"/>
<circle cx="118.5" cy="214.75" r="13.75" fill="none" stroke="url(#grad)" stroke-width="2"/>
<circle cx="173.5" cy="201" r="27.5" fill="none" stroke="url(#grad)" stroke-width="3"/>
<circle cx="159.75" cy="201" r="13.75" fill="none" stroke="url(#grad)" stroke-width="2"/>
<circle cx="187.25" cy="201" r="13.75" fill="none" stroke="url(#grad)" stroke-width="2"/>
<circle cx="173.5" cy="187.25" r="13.75" fill="none" stroke="url(#grad)" stroke-width="2"/>
<circle cx="173.5" cy="214.75" r="13.75" fill="none" stroke="url(#grad)" stroke-width="2"/>
<circle cx="146" cy="173.5" r="27.5" fill="none" stroke="url(#grad)" stroke-width="3"/>
<circle cx="132.25" cy="173.5" r="13.75" fill="none" stroke="url(#grad)" stroke-width="2"/>
<circle cx="159.75" cy="173.5" r="13.75" fill="none" stroke="url(#grad)" stroke-width="2"/>
<circle cx="146" cy="159.75" r="13.75" fill="none" stroke="url(#grad)" stroke-width="2"/>
<circle cx="146" cy="187.25" r="13.75" fill="none" stroke="url(#grad)" stroke-width="2"/>
<circle cx="146" cy="228.5" r="27.5" fill="none" stroke="url(#grad)" stroke-width="3"/>
<circle cx="132.25" cy="228.5" r="13.75" fill="none" stroke="url(#grad)" stroke-width="2"/>
<circle cx="159.75" cy="228.5" r="13.75" fill="none" stroke="url(#grad)" stroke-width="2"/>
<circle cx="146" cy="214.75" r="13.75" fill="none" stroke="url(#grad)" stroke-width="2"/>
<circle cx="146" cy="242.25" r="13.75" fill="none" stroke="url(#grad)" stroke-width="2"/>
<circle cx="146" cy="311" r="55" fill="none" stroke="url(#grad)" stroke-width="4"/>
<circle cx="118.5" cy="311" r="27.5" fill="none" stroke="url(#grad)" stroke-width="3"/>
<circle cx="104.75" cy="311" r="13.75" fill="none" stroke="url(#grad)" stroke-width="2"/>
<circle cx="132.25" cy="311" r="13.75" fill="none" stroke="url(#grad)" stroke-width="2"/>
<circle cx="118.5" cy="297.25" r="13.75" fill="none" stroke="url(#grad)" stroke-width="2"/>
<circle cx="118.5" cy="324.75" r="13.75" fill="none" stroke="url(#grad)" stroke-width="2"/>
<circle cx="173.5" cy="311" r="27.5" fill="none" stroke="url(#grad)" stroke-width="3"/>
<circle cx="159.75" cy="311" r="13.75" fill="none" stroke="url(#grad)" stroke-width="2"/>
<circle cx="187.25" cy="311" r="13.75" fill="none" stroke="url(#grad)" stroke-width="2"/>
<circle cx="173.5" cy="297.25" r="13.75" fill="none" stroke="url(#grad)" stroke-width="2"/>
<circle cx="173.5" cy="324.75" r="13.75" fill="none" stroke="url(#grad)" stroke-width="2"/>
<circle cx="146" cy="283.5" r="27.5" fill="none" stroke="url(#grad)" stroke-width="3"/>
<circle cx="132.25" cy="283.5" r="13.75" fill="none" stroke="url(#grad)" stroke-width="2"/>
<circle cx="159.75" cy="283.5" r="13.75" fill="none" stroke="url(#grad)" stroke-width="2"/>
<circle cx="146" cy="269.75" r="13.75" fill="none" stroke="url(#grad)" stroke-width="2"/>
<circle cx="146" cy="297.25" r="13.75" fill="none" stroke="url(#grad)" stroke-width="2"/>
<circle cx="146" cy="338.5" r="27.5" fill="none" stroke="url(#grad)" stroke-width="3"/>
<circle cx="132.25" cy="338.5" r="13.75" fill="none" stroke="url(#grad)" stroke-width="2"/>
<circle cx="159.75" cy="338.5" r="13.75" fill="none" stroke="url(#grad)" stroke-width="2"/>
<circle cx="146" cy="324.75" r="13.75" fill="none" stroke="url(#grad)" stroke-width="2"/>
<circle cx="146" cy="352.25" r="13.75" fill="none" stroke="url(#grad)" stroke-width="2"/>
<circle cx="366" cy="256" r="110" fill="none" stroke="url(#grad)" stroke-width="5"/>
<circle cx="311" cy="256" r="55" fill="none" stroke="url(#grad)" stroke-width="4"/>
<circle cx="283.5" cy="256" r="27.5" fill="none" stroke="url(#grad)" stroke-width="3"/>
<circle cx="269.75" cy="256" r="13.75" fill="none" stroke="url(#grad)" stroke-width="2"/>
<circle cx="297.25" cy="256" r="13.75" fill="none" stroke="url(#grad)" stroke-width="2"/>
<circle cx="283.5" cy="242.25" r="13.75" fill="none" stroke="url(#grad)" stroke-width="2"/>
<circle cx="283.5" cy="269.75" r="13.75" fill="none" stroke="url(#grad)" stroke-width="2"/>
<circle cx="338.5" cy="256" r="27.5" fill="none" stroke="url(#grad)" stroke-width="3"/>
<circle cx="324.75" cy="256" r="13.75" fill="none" stroke="url(#grad)" stroke-width="2"/>
<circle cx="352.25" cy="256" r="13.75" fill="none" stroke="url(#grad)" stroke-width="2"/>
<circle cx="338.5" cy="242.25" r="13.75" fill="none" stroke="url(#grad)" stroke-width="2"/>
<circle cx="338.5" cy="269.75" r="13.75" fill="none" stroke="url(#grad)" stroke-width="2"/>
<circle cx="311" cy="228.5" r="27.5" fill="none" stroke="url(#grad)" stroke-width="3"/>
<circle cx="297.25" cy="228.5" r="13.75" fill="none" stroke="url(#grad)" stroke-width="2"/>
<circle cx="324.75" cy="228.5" r="13.75" fill="none" stroke="url(#grad)" stroke-width="2"/>
<circle cx="311" cy="214.75" r="13.75" fill="none" stroke="url(#grad)" stroke-width="2"/>
<circle cx="311" cy="242.25" r="13.75" fill="none" stroke="url(#grad)" stroke-width="2"/>
<circle cx="311" cy="283.5" r="27.5" fill="none" stroke="url(#grad)" stroke-width="3"/>
<circle cx="297.25" cy="283.5" r="13.75" fill="none" stroke="url(#grad)" stroke-width="2"/>
<circle cx="324.75" cy="283.5" r="13.75" fill="none" stroke="url(#grad)" stroke-width="2"/>
<circle cx="311" cy="269.75" r="13.75" fill="none" stroke="url(#grad)" stroke-width="2"/>
<circle cx="311" cy="297.25" r="13.75" fill="none" stroke="url(#grad)" stroke-width="2"/>
<circle cx="421" cy="256" r="55" fill="none" stroke="url(#grad)" stroke-width="4"/>
<circle cx="393.5" cy="256" r="27.5" fill="none" stroke="url(#grad)" stroke-width="3"/>
<circle cx="379.75" cy="256" r="13.75" fill="none" stroke="url(#grad)" stroke-width="2"/>
<circle cx="407.25" cy="256" r="13.75" fill="none" stroke="url(#grad)" stroke-width="2"/>
<circle cx="393.5" cy="242.25" r="13.75" fill="none" stroke="url(#grad)" stroke-width="2"/>
<circle cx="393.5" cy="269.75" r="13.75" fill="none" stroke="url(#grad)" stroke-width="2"/>
<circle cx="448.5" cy="256" r="27.5" fill="none" stroke="url(#grad)" stroke-width="3"/>
<circle cx="434.75" cy="256" r="13.75" fill="none" stroke="url(#grad)" stroke-width="2"/>
<circle cx="462.25" cy="256" r="13.75" fill="none" stroke="url(#grad)" stroke-width="2"/>
<circle cx="448.5" cy="242.25" r="13.75" fill="none" stroke="url(#grad)" stroke-width="2"/>
<circle cx="448.5" cy="269.75" r="13.75" fill="none" stroke="url(#grad)" stroke-width="2"/>
<circle cx="421" cy="228.5" r="27.5" fill="none" stroke="url(#grad)" stroke-width="3"/>
<circle cx="407.25" cy="228.5" r="13.75" fill="none" stroke="url(#grad)" stroke-width="2"/>
<circle cx="434.75" cy="228.5" r="13.75" fill="none" stroke="url(#grad)" stroke-width="2"/>
<circle cx="421" cy="214.75" r="13.75" fill="none" stroke="url(#grad)" stroke-width="2"/>
<circle cx="421" cy="242.25" r="13.75" fill="none" stroke="url(#grad)" stroke-width="2"/>
<circle cx="421" cy="283.5" r="27.5" fill="none" stroke="url(#grad)" stroke-width="3"/>
<circle cx="407.25" cy="283.5" r="13.75" fill="none" stroke="url(#grad)" stroke-width="2"/>
<circle cx="434.75" cy="283.5" r="13.75" fill="none" stroke="url(#grad)" stroke-width="2"/>
<circle cx="421" cy="269.75" r="13.75" fill="none" stroke="url(#grad)" stroke-width="2"/>
<circle cx="421" cy="297.25" r="13.75" fill="none" stroke="url(#grad)" stroke-width="2"/>
<circle cx="366" cy="201" r="55" fill="none" stroke="url(#grad)" stroke-width="4"/>
<circle cx="338.5" cy="201" r="27.5" fill="none" stroke="url(#grad)" stroke-width="3"/>
<circle cx="324.75" cy="201" r="13.75" fill="none" stroke="url(#grad)" stroke-width="2"/>
<circle cx="352.25" cy="201" r="13.75" fill="none" stroke="url(#grad)" stroke-width="2"/>
<circle cx="338.5" cy="187.25" r="13.75" fill="none" stroke="url(#grad)" stroke-width="2"/>
<circle cx="338.5" cy="214.75" r="13.75" fill="none" stroke="url(#grad)" stroke-width="2"/>
<circle cx="393.5" cy="201" r="27.5" fill="none" stroke="url(#grad)" stroke-width="3"/>
<circle cx="379.75" cy="201" r="13.75" fill="none" stroke="url(#grad)" stroke-width="2"/>
<circle cx="407.25" cy="201" r="13.75" fill="none" stroke="url(#grad)" stroke-width="2"/>
<circle cx="393.5" cy="187.25" r="13.75" fill="none" stroke="url(#grad)" stroke-width="2"/>
<circle cx="393.5" cy="214.75" r="13.75" fill="none" stroke="url(#grad)" stroke-width="2"/>
<circle cx="366" cy="173.5" r="27.5" fill="none" stroke="url(#grad)" stroke-width="3"/>
<circle cx="352.25" cy="173.5" r="13.75" fill="none" stroke="url(#grad)" stroke-width="2"/>
<circle cx="379.75" cy="173.5" r="13.75" fill="none" stroke="url(#grad)" stroke-width="2"/>
<circle cx="366" cy="159.75" r="13.75" fill="none" stroke="url(#grad)" stroke-width="2"/>
<circle cx="366" cy="187.25" r="13.75" fill="none" stroke="url(#grad)" stroke-width="2"/>
<circle cx="366" cy="228.5" r="27.5" fill="none" stroke="url(#grad)" stroke-width="3"/>
<circle cx="352.25" cy="228.5" r="13.75" fill="none" stroke="url(#grad)" stroke-width="2"/>
<circle cx="379.75" cy="228.5" r="13.75" fill="none" stroke="url(#grad)" stroke-width="2"/>
<circle cx="366" cy="214.75" r="13.75" fill="none" stroke="url(#grad)" stroke-width="2"/>
<circle cx="366" cy="242.25" r="13.75" fill="none" stroke="url(#grad)" stroke-width="2"/>
<circle cx="366" cy="311" r="55" fill="none" stroke="url(#grad)" stroke-width="4"/>
<circle cx="338.5" cy="311" r="27.5" fill="none" stroke="url(#grad)" stroke-width="3"/>
<circle cx="324.75" cy="311" r="13.75" fill="none" stroke="url(#grad)" stroke-width="2"/>
<circle cx="352.25" cy="311" r="13.75" fill="none" stroke="url(#grad)" stroke-width="2"/>
<circle cx="338.5" cy="297.25" r="13.75" fill="none" stroke="url(#grad)" stroke-width="2"/>
<circle cx="338.5" cy="324.75" r="13.75" fill="none" stroke="url(#grad)" stroke-width="2"/>
<circle cx="393.5" cy="311" r="27.5" fill="none" stroke="url(#grad)" stroke-width="3"/>
<circle cx="379.75" cy="311" r="13.75" fill="none" stroke="url(#grad)" stroke-width="2"/>
<circle cx="407.25" cy="311" r="13.75" fill="none" stroke="url(#grad)" stroke-width="2"/>
<circle cx="393.5" cy="297.25" r="13.75" fill="none" stroke="url(#grad)" stroke-width="2"/>
<circle cx="393.5" cy="324.75" r="13.75" fill="none" stroke="url(#grad)" stroke-width="2"/>
<circle cx="366" cy="283.5" r="27.5" fill="none" stroke="url(#grad)" stroke-width="3"/>
<circle cx="352.25" cy="283.5" r="13.75" fill="none" stroke="url(#grad)" stroke-width="2"/>
<circle cx="379.75" cy="283.5" r="13.75" fill="none" stroke="url(#grad)" stroke-width="2"/>
<circle cx="366" cy="269.75" r="13.75" fill="none" stroke="url(#grad)" stroke-width="2"/>
<circle cx="366" cy="297.25" r="13.75" fill="none" stroke="url(#grad)" stroke-width="2"/>
<circle cx="366" cy="338.5" r="27.5" fill="none" stroke="url(#grad)" stroke-width="3"/>
<circle cx="352.25" cy="338.5" r="13.75" fill="none" stroke="url(#grad)" stroke-width="2"/>
<circle cx="379.75" cy="338.5" r="13.75" fill="none" stroke="url(#grad)" stroke-width="2"/>
<circle cx="366" cy="324.75" r="13.75" fill="none" stroke="url(#grad)" stroke-width="2"/>
<circle cx="366" cy="352.25" r="13.75" fill="none" stroke="url(#grad)" stroke-width="2"/>
<circle cx="256" cy="146" r="110" fill="none" stroke="url(#grad)" stroke-width="5"/>
<circle cx="201" cy="146" r="55" fill="none" stroke="url(#grad)" stroke-width="4"/>
<circle cx="173.5" cy="146" r="27.5" fill="none" stroke="url(#grad)" stroke-width="3"/>
<circle cx="159.75" cy="146" r="13.75" fill="none" stroke="url(#grad)" stroke-width="2"/>
<circle cx="187.25" cy="146" r="13.75" fill="none" stroke="url(#grad)" stroke-width="2"/>
<circle cx="173.5" cy="132.25" r="13.75" fill="none" stroke="url(#grad)" stroke-width="2"/>
<circle cx="173.5" cy="159.75" r="13.75" fill="none" stroke="url(#grad)" stroke-width="2"/>
<circle cx="228.5" cy="146" r="27.5" fill="none" stroke="url(#grad)" stroke-width="3"/>
<circle cx="214.75" cy="146" r="13.75" fill="none" stroke="url(#grad)" stroke-width="2"/>
<circle cx="242.25" cy="146" r="13.75" fill="none" stroke="url(#grad)" stroke-width="2"/>
<circle cx="228.5" cy="132.25" r="13.75" fill="none" stroke="url(#grad)" stroke-width="2"/>
<circle cx="228.5" cy="159.75" r="13.75" fill="none" stroke="url(#grad)" stroke-width="2"/>
<circle cx="201" cy="118.5" r="27.5" fill="none" stroke="url(#grad)" stroke-width="3"/>
<circle cx="187.25" cy="118.5" r="13.75" fill="none" stroke="url(#grad)" stroke-width="2"/>
<circle cx="214.75" cy="118.5" r="13.75" fill="none" stroke="url(#grad)" stroke-width="2"/>
<circle cx="201" cy="104.75" r="13.75" fill="none" stroke="url(#grad)" stroke-width="2"/>
<circle cx="201" cy="132.25" r="13.75" fill="none" stroke="url(#grad)" stroke-width="2"/>
<circle cx="201" cy="173.5" r="27.5" fill="none" stroke="url(#grad)" stroke-width="3"/>
<circle cx="187.25" cy="173.5" r="13.75" fill="none" stroke="url(#grad)" stroke-width="2"/>
<circle cx="214.75" cy="173.5" r="13.75" fill="none" stroke="url(#grad)" stroke-width="2"/>
<circle cx="201" cy="159.75" r="13.75" fill="none" stroke="url(#grad)" stroke-width="2"/>
<circle cx="201" cy="187.25" r="13.75" fill="none" stroke="url(#grad)" stroke-width="2"/>
<circle cx="311" cy="146" r="55" fill="none" stroke="url(#grad)" stroke-width="4"/>
<circle cx="283.5" cy="146" r="27.5" fill="none" stroke="url(#grad)" stroke-width="3"/>
<circle cx="269.75" cy="146" r="13.75" fill="none" stroke="url(#grad)" stroke-width="2"/>
<circle cx="297.25" cy="146" r="13.75" fill="none" stroke="url(#grad)" stroke-width="2"/>
<circle cx="283.5" cy="132.25" r="13.75" fill="none" stroke="url(#grad)" stroke-width="2"/>
<circle cx="283.5" cy="159.75" r="13.75" fill="none" stroke="url(#grad)" stroke-width="2"/>
<circle cx="338.5" cy="146" r="27.5" fill="none" stroke="url(#grad)" stroke-width="3"/>
<circle cx="324.75" cy="146" r="13.75" fill="none" stroke="url(#grad)" stroke-width="2"/>
<circle cx="352.25" cy="146" r="13.75" fill="none" stroke="url(#grad)" stroke-width="2"/>
<circle cx="338.5" cy="132.25" r="13.75" fill="none" stroke="url(#grad)" stroke-width="2"/>
<circle cx="338.5" cy="159.75" r="13.75" fill="none" stroke="url(#grad)" stroke-width="2"/>
<circle cx="311" cy="118.5" r="27.5" fill="none" stroke="url(#grad)" stroke-width="3"/>
<circle cx="297.25" cy="118.5" r="13.75" fill="none" stroke="url(#grad)" stroke-width="2"/>
<circle cx="324.75" cy="118.5" r="13.75" fill="none" stroke="url(#grad)" stroke-width="2"/>
<circle cx="311" cy="104.75" r="13.75" fill="none" stroke="url(#grad)" stroke-width="2"/>
<circle cx="311" cy="132.25" r="13.75" fill="none" stroke="url(#grad)" stroke-width="2"/>
<circle cx="311" cy="173.5" r="27.5" fill="none" stroke="url(#grad)" stroke-width="3"/>
<circle cx="297.25" cy="173.5" r="13.75" fill="none" stroke="url(#grad)" stroke-width="2"/>
<circle cx="324.75" cy="173.5" r="13.75" fill="none" stroke="url(#grad)" stroke-width="2"/>
<circle cx="311" cy="159.75" r="13.75" fill="none" stroke="url(#grad)" stroke-width="2"/>
<circle cx="311" cy="187.25" r="13.75" fill="none" stroke="url(#grad)" stroke-width="2"/>
<circle cx="256" cy="91" r="55" fill="none" stroke="url(#grad)" stroke-width="4"/>
<circle cx="228.5" cy="91" r="27.5" fill="none" stroke="url(#grad)" stroke-width="3"/>
<circle cx="214.75" cy="91" r="13.75" fill="none" stroke="url(#grad)" stroke-width="2"/>
<circle cx="242.25" cy="91" r="13.75" fill="none" stroke="url(#grad)" stroke-width="2"/>
<circle cx="228.5" cy="77.25" r="13.75" fill="none" stroke="url(#grad)" stroke-width="2"/>
<circle cx="228.5" cy="104.75" r="13.75" fill="none" stroke="url(#grad)" stroke-width="2"/>
<circle cx="283.5" cy="91" r="27.5" fill="none" stroke="url(#grad)" stroke-width="3"/>
<circle cx="269.75" cy="91" r="13.75" fill="none" stroke="url(#grad)" stroke-width="2"/>
<circle cx="297.25" cy="91" r="13.75" fill="none" stroke="url(#grad)" stroke-width="2"/>
<circle cx="283.5" cy="77.25" r="13.75" fill="none" stroke="url(#grad)" stroke-width="2"/>
<circle cx="283.5" cy="104.75" r="13.75" fill="none" stroke="url(#grad)" stroke-width="2"/>
<circle cx="256" cy="63.5" r="27.5" fill="none" stroke="url(#grad)" stroke-width="3"/>
<circle cx="242.25" cy="63.5" r="13.75" fill="none" stroke="url(#grad)" stroke-width="2"/>
<circle cx="269.75" cy="63.5" r="13.75" fill="none" stroke="url(#grad)" stroke-width="2"/>
<circle cx="256" cy="49.75" r="13.75" fill="none" stroke="url(#grad)" stroke-width="2"/>
<circle cx="256" cy="77.25" r="13.75" fill="none" stroke="url(#grad)" stroke-width="2"/>
<circle cx="256" cy="118.5" r="27.5" fill="none" stroke="url(#grad)" stroke-width="3"/>
<circle cx="242.25" cy="118.5" r="13.75" fill="none" stroke="url(#grad)" stroke-width="2"/>
<circle cx="269.75" cy="118.5" r="13.75" fill="none" stroke="url(#grad)" stroke-width="2"/>
<circle cx="256" cy="104.75" r="13.75" fill="none" stroke="url(#grad)" stroke-width="2"/>
<circle cx="256" cy="132.25" r="13.75" fill="none" stroke="url(#grad)" stroke-width="2"/>
<circle cx="256" cy="201" r="55" fill="none" stroke="url(#grad)" stroke-width="4"/>
<circle cx="228.5" cy="201" r="27.5" fill="none" stroke="url(#grad)" stroke-width="3"/>
<circle cx="214.75" cy="201" r="13.75" fill="none" stroke="url(#grad)" stroke-width="2"/>
<circle cx="242.25" cy="201" r="13.75" fill="none" stroke="url(#grad)" stroke-width="2"/>
<circle cx="228.5" cy="187.25" r="13.75" fill="none" stroke="url(#grad)" stroke-width="2"/>
<circle cx="228.5" cy="214.75" r="13.75" fill="none" stroke="url(#grad)" stroke-width="2"/>
<circle cx="283.5" cy="201" r="27.5" fill="none" stroke="url(#grad)" stroke-width="3"/>
<circle cx="269.75" cy="201" r="13.75" fill="none" stroke="url(#grad)" stroke-width="2"/>
<circle cx="297.25" cy="201" r="13.75" fill="none" stroke="url(#grad)" stroke-width="2"/>
<circle cx="283.5" cy="187.25" r="13.75" fill="none" stroke="url(#grad)" stroke-width="2"/>
<circle cx="283.5" cy="214.75" r="13.75" fill="none" stroke="url(#grad)" stroke-width="2"/>
<circle cx="256" cy="173.5" r="27.5" fill="none" stroke="url(#grad)" stroke-width="3"/>
<circle cx="242.25" cy="173.5" r="13.75" fill="none" stroke="url(#grad)" stroke-width="2"/>
<circle cx="269.75" cy="173.5" r="13.75" fill="none" stroke="url(#grad)" stroke-width="2"/>
<circle cx="256" cy="159.75" r="13.75" fill="none" stroke="url(#grad)" stroke-width="2"/>
<circle cx="256" cy="187.25" r="13.75" fill="none" stroke="url(#grad)" stroke-width="2"/>
<circle cx="256" cy="228.5" r="27.5" fill="none" stroke="url(#grad)" stroke-width="3"/>
<circle cx="242.25" cy="228.5" r="13.75" fill="none" stroke="url(#grad)" stroke-width="2"/>
<circle cx="269.75" cy="228.5" r="13.75" fill="none" stroke="url(#grad)" stroke-width="2"/>
<circle cx="256" cy="214.75" r="13.75" fill="none" stroke="url(#grad)" stroke-width="2"/>
<circle cx="256" cy="242.25" r="13.75" fill="none" stroke="url(#grad)" stroke-width="2"/>
<circle cx="256" cy="366" r="110" fill="none" stroke="url(#grad)" stroke-width="5"/>
<circle cx="201" cy="366" r="55" fill="none" stroke="url(#grad)" stroke-width="4"/>
<circle cx="173.5" cy="366" r="27.5" fill="none" stroke="url(#grad)" stroke-width="3"/>
<circle cx="159.75" cy="366" r="13.75" fill="none" stroke="url(#grad)" stroke-width="2"/>
<circle cx="187.25" cy="366" r="13.75" fill="none" stroke="url(#grad)" stroke-width="2"/>
<circle cx="173.5" cy="352.25" r="13.75" fill="none" stroke="url(#grad)" stroke-width="2"/>
<circle cx="173.5" cy="379.75" r="13.75" fill="none" stroke="url(#grad)" stroke-width="2"/>
<circle cx="228.5" cy="366" r="27.5" fill="none" stroke="url(#grad)" stroke-width="3"/>
<circle cx="214.75" cy="366" r="13.75" fill="none" stroke="url(#grad)" stroke-width="2"/>
<circle cx="242.25" cy="366" r="13.75" fill="none" stroke="url(#grad)" stroke-width="2"/>
<circle cx="228.5" cy="352.25" r="13.75" fill="none" stroke="url(#grad)" stroke-width="2"/>
<circle cx="228.5" cy="379.75" r="13.75" fill="none" stroke="url(#grad)" stroke-width="2"/>
<circle cx="201" cy="338.5" r="27.5" fill="none" stroke="url(#grad)" stroke-width="3"/>
<circle cx="187.25" cy="338.5" r="13.75" fill="none" stroke="url(#grad)" stroke-width="2"/>
<circle cx="214.75" cy="338.5" r="13.75" fill="none" stroke="url(#grad)" stroke-width="2"/>
<circle cx="201" cy="324.75" r="13.75" fill="none" stroke="url(#grad)" stroke-width="2"/>
<circle cx="201" cy="352.25" r="13.75" fill="none" stroke="url(#grad)" stroke-width="2"/>
<circle cx="201" cy="393.5" r="27.5" fill="none" stroke="url(#grad)" stroke-width="3"/>
<circle cx="187.25" cy="393.5" r="13.75" fill="none" stroke="url(#grad)" stroke-width="2"/>
<circle cx="214.75" cy="393.5" r="13.75" fill="none" stroke="url(#grad)" stroke-width="2"/>
<circle cx="201" cy="379.75" r="13.75" fill="none" stroke="url(#grad)" stroke-width="2"/>
<circle cx="201" cy="407.25" r="13.75" fill="none" stroke="url(#grad)" stroke-width="2"/>
<circle cx="311" cy="366" r="55" fill="none" stroke="url(#grad)" stroke-width="4"/>
<circle cx="283.5" cy="366" r="27.5" fill="none" stroke="url(#grad)" stroke-width="3"/>
<circle cx="269.75" cy="366" r="13.75" fill="none" stroke="url(#grad)" stroke-width="2"/>
<circle cx="297.25" cy="366" r="13.75" fill="none" stroke="url(#grad)" stroke-width="2"/>
<circle cx="283.5" cy="352.25" r="13.75" fill="none" stroke="url(#grad)" stroke-width="2"/>
<circle cx="283.5" cy="379.75" r="13.75" fill="none" stroke="url(#grad)" stroke-width="2"/>
<circle cx="338.5" cy="366" r="27.5" fill="none" stroke="url(#grad)" stroke-width="3"/>
<circle cx="324.75" cy="366" r="13.75" fill="none" stroke="url(#grad)" stroke-width="2"/>
<circle cx="352.25" cy="366" r="13.75" fill="none" stroke="url(#grad)" stroke-width="2"/>
<circle cx="338.5" cy="352.25" r="13.75" fill="none" stroke="url(#grad)" stroke-width="2"/>
<circle cx="338.5" cy="379.75" r="13.75" fill="none" stroke="url(#grad)" stroke-width="2"/>
<circle cx="311" cy="338.5" r="27.5" fill="none" stroke="url(#grad)" stroke-width="3"/>
<circle cx="297.25" cy="338.5" r="13.75" fill="none" stroke="url(#grad)" stroke-width="2"/>
<circle cx="324.75" cy="338.5" r="13.75" fill="none" stroke="url(#grad)" stroke-width="2"/>
<circle cx="311" cy="324.75" r="13.75" fill="none" stroke="url(#grad)" stroke-width="2"/>
<circle cx="311" cy="352.25" r="13.75" fill="none" stroke="url(#grad)" stroke-width="2"/>
<circle cx="311" cy="393.5" r="27.5" fill="none" stroke="url(#grad)" stroke-width="3"/>
<circle cx="297.25" cy="393.5" r="13.75" fill="none" stroke="url(#grad)" stroke-width="2"/>
<circle cx="324.75" cy="393.5" r="13.75" fill="none" stroke="url(#grad)" stroke-width="2"/>
<circle cx="311" cy="379.75" r="13.75" fill="none" stroke="url(#grad)" stroke-width="2"/>
<circle cx="311" cy="407.25" r="13.75" fill="none" stroke="url(#grad)" stroke-width="2"/>
<circle cx="256" cy="311" r="55" fill="none" stroke="url(#grad)" stroke-width="4"/>
<circle cx="228.5" cy="311" r="27.5" fill="none" stroke="url(#grad)" stroke-width="3"/>
<circle cx="214.75" cy="311" r="13.75" fill="none" stroke="url(#grad)" stroke-width="2"/>
<circle cx="242.25" cy="311" r="13.75" fill="none" stroke="url(#grad)" stroke-width="2"/>
<circle cx="228.5" cy="297.25" r="13.75" fill="none" stroke="url(#grad)" stroke-width="2"/>
<circle cx="228.5" cy="324.75" r="13.75" fill="none" stroke="url(#grad)" stroke-width="2"/>
<circle cx="283.5" cy="311" r="27.5" fill="none" stroke="url(#grad)" stroke-width="3"/>
<circle cx="269.75" cy="311" r="13.75" fill="none" stroke="url(#grad)" stroke-width="2"/>
<circle cx="297.25" cy="311" r="13.75" fill="none" stroke="url(#grad)" stroke-width="2"/>
<circle cx="283.5" cy="297.25" r="13.75" fill="none" stroke="url(#grad)" stroke-width="2"/>
<circle cx="283.5" cy="324.75" r="13.75" fill="none" stroke="url(#grad)" stroke-width="2"/>
<circle cx="256" cy="283.5" r="27.5" fill="none" stroke="url(#grad)" stroke-width="3"/>
<circle cx="242.25" cy="283.5" r="13.75" fill="none" stroke="url(#grad)" stroke-width="2"/>
<circle cx="269.75" cy="283.5" r="13.75" fill="none" stroke="url(#grad)" stroke-width="2"/>
<circle cx="256" cy="269.75" r="13.75" fill="none" stroke="url(#grad)" stroke-width="2"/>
<circle cx="256" cy="297.25" r="13.75" fill="none" stroke="url(#grad)" stroke-width="2"/>
<circle cx="256" cy="338.5" r="27.5" fill="none" stroke="url(#grad)" stroke-width="3"/>
<circle cx="242.25" cy="338.5" r="13.75" fill="none" stroke="url(#grad)" stroke-width="2"/>
<circle cx="269.75" cy="338.5" r="13.75" fill="none" stroke="url(#grad)" stroke-width="2"/>
<circle cx="256" cy="324.75" r="13.75" fill="none" stroke="url(#grad)" stroke-width="2"/>
<circle cx="256" cy="352.25" r="13.75" fill="none" stroke="url(#grad)" stroke-width="2"/>
<circle cx="256" cy="421" r="55" fill="none" stroke="url(#grad)" stroke-width="4"/>
<circle cx="228.5" cy="421" r="27.5" fill="none" stroke="url(#grad)" stroke-width="3"/>
<circle cx="214.75" cy="421" r="13.75" fill="none" stroke="url(#grad)" stroke-width="2"/>
<circle cx="242.25" cy="421" r="13.75" fill="none" stroke="url(#grad)" stroke-width="2"/>
<circle cx="228.5" cy="407.25" r="13.75" fill="none" stroke="url(#grad)" stroke-width="2"/>
<circle cx="228.5" cy="434.75" r="13.75" fill="none" stroke="url(#grad)" stroke-width="2"/>
<circle cx="283.5" cy="421" r="27.5" fill="none" stroke="url(#grad)" stroke-width="3"/>
<circle cx="269.75" cy="421" r="13.75" fill="none" stroke="url(#grad)" stroke-width="2"/>
<circle cx="297.25" cy="421" r="13.75" fill="none" stroke="url(#grad)" stroke-width="2"/>
<circle cx="283.5" cy="407.25" r="13.75" fill="none" stroke="url(#grad)" stroke-width="2"/>
<circle cx="283.5" cy="434.75" r="13.75" fill="none" stroke="url(#grad)" stroke-width="2"/>
<circle cx="256" cy="393.5" r="27.5" fill="none" stroke="url(#grad)" stroke-width="3"/>
<circle cx="242.25" cy="393.5" r="13.75" fill="none" stroke="url(#grad)" stroke-width="2"/>
<circle cx="269.75" cy="393.5" r="13.75" fill="none" stroke="url(#grad)" stroke-width="2"/>
<circle cx="256" cy="379.75" r="13.75" fill="none" stroke="url(#grad)" stroke-width="2"/>
<circle cx="256" cy="407.25" r="13.75" fill="none" stroke="url(#grad)" stroke-width="2"/>
<circle cx="256" cy="448.5" r="27.5" fill="none" stroke="url(#grad)" stroke-width="3"/>
<circle cx="242.25" cy="448.5" r="13.75" fill="none" stroke="url(#grad)" stroke-width="2"/>
<circle cx="269.75" cy="448.5" r="13.75" fill="none" stroke="url(#grad)" stroke-width="2"/>
<circle cx="256" cy="434.75" r="13.75" fill="none" stroke="url(#grad)" stroke-width="2"/>
<circle cx="256" cy="462.25" r="13.75" fill="none" stroke="url(#grad)" stroke-width="2"/>
</svg>