<svg viewBox="0 0 512 512" xmlns="http://www.w3.org/2000/svg">
<defs>
  <linearGradient id="grad" x1="0%" y1="0%" x2="100%" y2="100%">
    <stop offset="0%" stop-color="#60A5FA"/>
    <stop offset="30%" stop-color="#3B82F6"/>
    <stop offset="100%" stop-color="#1D4ED8"/>
  </linearGradient>
</defs>
<circle cx="256" cy="256" r="256" fill="#0A0A0A"/>
<polygon points="366,256 311,351.2627944162882 201.00000000000003,351.2627944162883 146,256 200.99999999999994,160.73720558371178 311,160.73720558371176" fill="rgba(59, 130, 246, 0.1)" stroke="url(#grad)" stroke-width="4" />
<polygon points="405.2857142857143,256 385.64285714285717,290.0224265772458 346.3571428571429,290.0224265772458 326.7142857142857,256 346.35714285714283,221.9775734227542 385.64285714285717,221.9775734227542" fill="none" stroke="url(#grad)" stroke-width="3" />
<polygon points="419.31632653061223,256 412.30102040816325,268.1508666347306 398.2704081632653,268.1508666347306 391.2551020408163,256 398.2704081632653,243.84913336526935 412.30102040816325,243.84913336526935" fill="rgba(59, 130, 246, 0.1)" stroke="url(#grad)" stroke-width="2" />
<polygon points="424.3272594752186,256 421.82179300291546,260.33959522668954 416.810860058309,260.33959522668954 414.30539358600583,256 416.810860058309,251.6604047733105 421.82179300291546,251.6604047733105" fill="none" stroke="url(#grad)" stroke-width="1" />
<polygon points="417.31195335276965,268.1508666347306 414.8064868804665,272.49046186142016 409.79555393586,272.49046186142016 407.29008746355686,268.1508666347306 409.79555393586,263.8112714080411 414.8064868804665,263.8112714080411" fill="none" stroke="url(#grad)" stroke-width="1" />
<polygon points="403.2813411078717,268.1508666347306 400.7758746355685,272.49046186142016 395.7649416909621,272.49046186142016 393.2594752186589,268.1508666347306 395.7649416909621,263.8112714080411 400.7758746355685,263.8112714080411" fill="none" stroke="url(#grad)" stroke-width="1" />
<polygon points="396.2660349854227,256 393.76056851311955,260.33959522668954 388.7496355685131,260.33959522668954 386.24416909620993,256 388.7496355685131,251.6604047733105 393.76056851311955,251.6604047733105" fill="none" stroke="url(#grad)" stroke-width="1" />
<polygon points="403.2813411078717,243.84913336526935 400.7758746355685,248.18872859195886 395.7649416909621,248.18872859195886 393.2594752186589,243.84913336526935 395.7649416909621,239.50953813857984 400.7758746355685,239.50953813857984" fill="none" stroke="url(#grad)" stroke-width="1" />
<polygon points="417.31195335276965,243.84913336526935 414.8064868804665,248.18872859195886 409.79555393586,248.18872859195886 407.29008746355686,243.84913336526935 409.79555393586,239.50953813857984 414.8064868804665,239.50953813857984" fill="none" stroke="url(#grad)" stroke-width="1" />
<polygon points="399.6734693877551,290.0224265772458 392.65816326530614,302.17329321197644 378.6275510204082,302.17329321197644 371.6122448979592,290.0224265772458 378.6275510204082,277.8715599425152 392.65816326530614,277.8715599425152" fill="rgba(59, 130, 246, 0.1)" stroke="url(#grad)" stroke-width="2" />
<polygon points="404.6844023323615,290.0224265772458 402.17893586005835,294.36202180393536 397.1680029154519,294.36202180393536 394.6625364431487,290.0224265772458 397.1680029154519,285.6828313505563 402.17893586005835,285.6828313505563" fill="none" stroke="url(#grad)" stroke-width="1" />
<polygon points="397.66909620991254,302.17329321197644 395.16362973760937,306.512888438666 390.1526967930029,306.512888438666 387.64723032069975,302.17329321197644 390.1526967930029,297.8336979852869 395.16362973760937,297.8336979852869" fill="none" stroke="url(#grad)" stroke-width="1" />
<polygon points="383.6384839650146,302.17329321197644 381.1330174927114,306.512888438666 376.12208454810497,306.512888438666 373.6166180758018,302.17329321197644 376.12208454810497,297.8336979852869 381.1330174927114,297.8336979852869" fill="none" stroke="url(#grad)" stroke-width="1" />
<polygon points="376.6231778425656,290.0224265772458 374.11771137026244,294.36202180393536 369.106778425656,294.36202180393536 366.6013119533528,290.0224265772458 369.106778425656,285.6828313505563 374.11771137026244,285.6828313505563" fill="none" stroke="url(#grad)" stroke-width="1" />
<polygon points="383.6384839650146,277.8715599425152 381.1330174927114,282.21115516920474 376.12208454810497,282.21115516920474 373.6166180758018,277.8715599425152 376.12208454810497,273.53196471582567 381.1330174927114,273.53196471582567" fill="none" stroke="url(#grad)" stroke-width="1" />
<polygon points="397.66909620991254,277.8715599425152 395.16362973760937,282.21115516920474 390.1526967930029,282.21115516920474 387.64723032069975,277.8715599425152 390.1526967930029,273.53196471582567 395.16362973760937,273.53196471582567" fill="none" stroke="url(#grad)" stroke-width="1" />
<polygon points="360.38775510204084,290.0224265772458 353.37244897959187,302.17329321197644 339.3418367346939,302.17329321197644 332.32653061224494,290.0224265772458 339.3418367346939,277.8715599425152 353.37244897959187,277.8715599425152" fill="rgba(59, 130, 246, 0.1)" stroke="url(#grad)" stroke-width="2" />
<polygon points="365.39868804664724,290.0224265772458 362.89322157434407,294.36202180393536 357.8822886297376,294.36202180393536 355.37682215743445,290.0224265772458 357.8822886297376,285.6828313505563 362.89322157434407,285.6828313505563" fill="none" stroke="url(#grad)" stroke-width="1" />
<polygon points="358.38338192419826,302.17329321197644 355.8779154518951,306.512888438666 350.86698250728864,306.512888438666 348.36151603498547,302.17329321197644 350.86698250728864,297.8336979852869 355.8779154518951,297.8336979852869" fill="none" stroke="url(#grad)" stroke-width="1" />
<polygon points="344.3527696793003,302.17329321197644 341.84730320699714,306.512888438666 336.8363702623907,306.512888438666 334.3309037900875,302.17329321197644 336.8363702623907,297.8336979852869 341.84730320699714,297.8336979852869" fill="none" stroke="url(#grad)" stroke-width="1" />
<polygon points="337.33746355685133,290.0224265772458 334.83199708454816,294.36202180393536 329.8210641399417,294.36202180393536 327.31559766763854,290.0224265772458 329.8210641399417,285.6828313505563 334.83199708454816,285.6828313505563" fill="none" stroke="url(#grad)" stroke-width="1" />
<polygon points="344.3527696793003,277.8715599425152 341.84730320699714,282.21115516920474 336.8363702623907,282.21115516920474 334.3309037900875,277.8715599425152 336.8363702623907,273.53196471582567 341.84730320699714,273.53196471582567" fill="none" stroke="url(#grad)" stroke-width="1" />
<polygon points="358.38338192419826,277.8715599425152 355.8779154518951,282.21115516920474 350.86698250728864,282.21115516920474 348.36151603498547,277.8715599425152 350.86698250728864,273.53196471582567 355.8779154518951,273.53196471582567" fill="none" stroke="url(#grad)" stroke-width="1" />
<polygon points="340.7448979591837,256 333.7295918367347,268.1508666347306 319.69897959183675,268.1508666347306 312.68367346938777,256 319.69897959183675,243.84913336526935 333.7295918367347,243.84913336526935" fill="rgba(59, 130, 246, 0.1)" stroke="url(#grad)" stroke-width="2" />
<polygon points="345.75583090379007,256 343.2503644314869,260.33959522668954 338.23943148688045,260.33959522668954 335.7339650145773,256 338.23943148688045,251.6604047733105 343.2503644314869,251.6604047733105" fill="none" stroke="url(#grad)" stroke-width="1" />
<polygon points="338.7405247813411,268.1508666347306 336.2350583090379,272.49046186142016 331.2241253644315,272.49046186142016 328.7186588921283,268.1508666347306 331.2241253644315,263.8112714080411 336.2350583090379,263.8112714080411" fill="none" stroke="url(#grad)" stroke-width="1" />
<polygon points="324.70991253644314,268.1508666347306 322.20444606414,272.49046186142016 317.1935131195335,272.49046186142016 314.68804664723035,268.1508666347306 317.1935131195335,263.8112714080411 322.20444606414,263.8112714080411" fill="none" stroke="url(#grad)" stroke-width="1" />
<polygon points="317.69460641399417,256 315.189139941691,260.33959522668954 310.17820699708454,260.33959522668954 307.6727405247814,256 310.17820699708454,251.6604047733105 315.189139941691,251.6604047733105" fill="none" stroke="url(#grad)" stroke-width="1" />
<polygon points="324.70991253644314,243.84913336526935 322.20444606414,248.18872859195886 317.1935131195335,248.18872859195886 314.68804664723035,243.84913336526935 317.1935131195335,239.50953813857984 322.20444606414,239.50953813857984" fill="none" stroke="url(#grad)" stroke-width="1" />
<polygon points="338.7405247813411,243.84913336526935 336.2350583090379,248.18872859195886 331.2241253644315,248.18872859195886 328.7186588921283,243.84913336526935 331.2241253644315,239.50953813857984 336.2350583090379,239.50953813857984" fill="none" stroke="url(#grad)" stroke-width="1" />
<polygon points="360.3877551020408,221.9775734227542 353.3724489795918,234.12844005748485 339.34183673469386,234.12844005748485 332.3265306122449,221.9775734227542 339.34183673469386,209.82670678802356 353.3724489795918,209.82670678802356" fill="rgba(59, 130, 246, 0.1)" stroke="url(#grad)" stroke-width="2" />
<polygon points="365.3986880466472,221.9775734227542 362.893221574344,226.31716864944372 357.88228862973756,226.31716864944372 355.3768221574344,221.9775734227542 357.88228862973756,217.6379781960647 362.893221574344,217.6379781960647" fill="none" stroke="url(#grad)" stroke-width="1" />
<polygon points="358.3833819241982,234.12844005748485 355.87791545189503,238.46803528417436 350.8669825072886,238.46803528417436 348.3615160349854,234.12844005748485 350.8669825072886,229.78884483079534 355.87791545189503,229.78884483079534" fill="none" stroke="url(#grad)" stroke-width="1" />
<polygon points="344.35276967930025,234.12844005748485 341.8473032069971,238.46803528417436 336.83637026239063,238.46803528417436 334.33090379008746,234.12844005748485 336.83637026239063,229.78884483079534 341.8473032069971,229.78884483079534" fill="none" stroke="url(#grad)" stroke-width="1" />
<polygon points="337.3374635568513,221.9775734227542 334.8319970845481,226.31716864944372 329.82106413994165,226.31716864944372 327.3155976676385,221.9775734227542 329.82106413994165,217.6379781960647 334.8319970845481,217.6379781960647" fill="none" stroke="url(#grad)" stroke-width="1" />
<polygon points="344.35276967930025,209.82670678802356 341.8473032069971,214.16630201471307 336.83637026239063,214.16630201471307 334.33090379008746,209.82670678802356 336.83637026239063,205.48711156133405 341.8473032069971,205.48711156133405" fill="none" stroke="url(#grad)" stroke-width="1" />
<polygon points="358.3833819241982,209.82670678802356 355.87791545189503,214.16630201471307 350.8669825072886,214.16630201471307 348.3615160349854,209.82670678802356 350.8669825072886,205.48711156133405 355.87791545189503,205.48711156133405" fill="none" stroke="url(#grad)" stroke-width="1" />
<polygon points="399.6734693877551,221.9775734227542 392.65816326530614,234.12844005748485 378.6275510204082,234.12844005748485 371.6122448979592,221.9775734227542 378.6275510204082,209.82670678802356 392.65816326530614,209.82670678802356" fill="rgba(59, 130, 246, 0.1)" stroke="url(#grad)" stroke-width="2" />
<polygon points="404.6844023323615,221.9775734227542 402.17893586005835,226.31716864944372 397.1680029154519,226.31716864944372 394.6625364431487,221.9775734227542 397.1680029154519,217.6379781960647 402.17893586005835,217.6379781960647" fill="none" stroke="url(#grad)" stroke-width="1" />
<polygon points="397.66909620991254,234.12844005748485 395.16362973760937,238.46803528417436 390.1526967930029,238.46803528417436 387.64723032069975,234.12844005748485 390.1526967930029,229.78884483079534 395.16362973760937,229.78884483079534" fill="none" stroke="url(#grad)" stroke-width="1" />
<polygon points="383.6384839650146,234.12844005748485 381.1330174927114,238.46803528417436 376.12208454810497,238.46803528417436 373.6166180758018,234.12844005748485 376.12208454810497,229.78884483079534 381.1330174927114,229.78884483079534" fill="none" stroke="url(#grad)" stroke-width="1" />
<polygon points="376.6231778425656,221.9775734227542 374.11771137026244,226.31716864944372 369.106778425656,226.31716864944372 366.6013119533528,221.9775734227542 369.106778425656,217.6379781960647 374.11771137026244,217.6379781960647" fill="none" stroke="url(#grad)" stroke-width="1" />
<polygon points="383.6384839650146,209.82670678802356 381.1330174927114,214.16630201471307 376.12208454810497,214.16630201471307 373.6166180758018,209.82670678802356 376.12208454810497,205.48711156133405 381.1330174927114,205.48711156133405" fill="none" stroke="url(#grad)" stroke-width="1" />
<polygon points="397.66909620991254,209.82670678802356 395.16362973760937,214.16630201471307 390.1526967930029,214.16630201471307 387.64723032069975,209.82670678802356 390.1526967930029,205.48711156133405 395.16362973760937,205.48711156133405" fill="none" stroke="url(#grad)" stroke-width="1" />
<polygon points="350.2857142857143,351.2627944162882 330.64285714285717,385.28522099353404 291.3571428571429,385.28522099353404 271.7142857142857,351.2627944162882 291.35714285714283,317.2403678390424 330.64285714285717,317.2403678390424" fill="none" stroke="url(#grad)" stroke-width="3" />
<polygon points="364.31632653061223,351.2627944162882 357.30102040816325,363.41366105101883 343.2704081632653,363.41366105101883 336.2551020408163,351.2627944162882 343.2704081632653,339.1119277815576 357.30102040816325,339.1119277815576" fill="rgba(59, 130, 246, 0.1)" stroke="url(#grad)" stroke-width="2" />
<polygon points="369.3272594752186,351.2627944162882 366.82179300291546,355.60238964297776 361.810860058309,355.60238964297776 359.30539358600583,351.2627944162882 361.810860058309,346.9231991895987 366.82179300291546,346.9231991895987" fill="none" stroke="url(#grad)" stroke-width="1" />
<polygon points="362.31195335276965,363.41366105101883 359.8064868804665,367.7532562777084 354.79555393586,367.7532562777084 352.29008746355686,363.41366105101883 354.79555393586,359.0740658243293 359.8064868804665,359.0740658243293" fill="none" stroke="url(#grad)" stroke-width="1" />
<polygon points="348.2813411078717,363.41366105101883 345.7758746355685,367.7532562777084 340.7649416909621,367.7532562777084 338.2594752186589,363.41366105101883 340.7649416909621,359.0740658243293 345.7758746355685,359.0740658243293" fill="none" stroke="url(#grad)" stroke-width="1" />
<polygon points="341.2660349854227,351.2627944162882 338.76056851311955,355.60238964297776 333.7496355685131,355.60238964297776 331.24416909620993,351.2627944162882 333.7496355685131,346.9231991895987 338.76056851311955,346.9231991895987" fill="none" stroke="url(#grad)" stroke-width="1" />
<polygon points="348.2813411078717,339.1119277815576 345.7758746355685,343.45152300824714 340.7649416909621,343.45152300824714 338.2594752186589,339.1119277815576 340.7649416909621,334.77233255486806 345.7758746355685,334.77233255486806" fill="none" stroke="url(#grad)" stroke-width="1" />
<polygon points="362.31195335276965,339.1119277815576 359.8064868804665,343.45152300824714 354.79555393586,343.45152300824714 352.29008746355686,339.1119277815576 354.79555393586,334.77233255486806 359.8064868804665,334.77233255486806" fill="none" stroke="url(#grad)" stroke-width="1" />
<polygon points="344.6734693877551,385.28522099353404 337.65816326530614,397.43608762826466 323.6275510204082,397.43608762826466 316.6122448979592,385.28522099353404 323.6275510204082,373.1343543588034 337.65816326530614,373.1343543588034" fill="rgba(59, 130, 246, 0.1)" stroke="url(#grad)" stroke-width="2" />
<polygon points="349.6844023323615,385.28522099353404 347.17893586005835,389.6248162202236 342.1680029154519,389.6248162202236 339.6625364431487,385.28522099353404 342.1680029154519,380.9456257668445 347.17893586005835,380.9456257668445" fill="none" stroke="url(#grad)" stroke-width="1" />
<polygon points="342.66909620991254,397.43608762826466 340.16362973760937,401.7756828549542 335.1526967930029,401.7756828549542 332.64723032069975,397.43608762826466 335.1526967930029,393.0964924015751 340.16362973760937,393.0964924015751" fill="none" stroke="url(#grad)" stroke-width="1" />
<polygon points="328.6384839650146,397.43608762826466 326.1330174927114,401.7756828549542 321.12208454810497,401.7756828549542 318.6166180758018,397.43608762826466 321.12208454810497,393.0964924015751 326.1330174927114,393.0964924015751" fill="none" stroke="url(#grad)" stroke-width="1" />
<polygon points="321.6231778425656,385.28522099353404 319.11771137026244,389.6248162202236 314.106778425656,389.6248162202236 311.6013119533528,385.28522099353404 314.106778425656,380.9456257668445 319.11771137026244,380.9456257668445" fill="none" stroke="url(#grad)" stroke-width="1" />
<polygon points="328.6384839650146,373.1343543588034 326.1330174927114,377.47394958549296 321.12208454810497,377.47394958549296 318.6166180758018,373.1343543588034 321.12208454810497,368.7947591321139 326.1330174927114,368.7947591321139" fill="none" stroke="url(#grad)" stroke-width="1" />
<polygon points="342.66909620991254,373.1343543588034 340.16362973760937,377.47394958549296 335.1526967930029,377.47394958549296 332.64723032069975,373.1343543588034 335.1526967930029,368.7947591321139 340.16362973760937,368.7947591321139" fill="none" stroke="url(#grad)" stroke-width="1" />
<polygon points="305.38775510204084,385.28522099353404 298.37244897959187,397.43608762826466 284.3418367346939,397.43608762826466 277.32653061224494,385.28522099353404 284.3418367346939,373.1343543588034 298.37244897959187,373.1343543588034" fill="rgba(59, 130, 246, 0.1)" stroke="url(#grad)" stroke-width="2" />
<polygon points="310.39868804664724,385.28522099353404 307.89322157434407,389.6248162202236 302.8822886297376,389.6248162202236 300.37682215743445,385.28522099353404 302.8822886297376,380.9456257668445 307.89322157434407,380.9456257668445" fill="none" stroke="url(#grad)" stroke-width="1" />
<polygon points="303.38338192419826,397.43608762826466 300.8779154518951,401.7756828549542 295.86698250728864,401.7756828549542 293.36151603498547,397.43608762826466 295.86698250728864,393.0964924015751 300.8779154518951,393.0964924015751" fill="none" stroke="url(#grad)" stroke-width="1" />
<polygon points="289.3527696793003,397.43608762826466 286.84730320699714,401.7756828549542 281.8363702623907,401.7756828549542 279.3309037900875,397.43608762826466 281.8363702623907,393.0964924015751 286.84730320699714,393.0964924015751" fill="none" stroke="url(#grad)" stroke-width="1" />
<polygon points="282.33746355685133,385.28522099353404 279.83199708454816,389.6248162202236 274.8210641399417,389.6248162202236 272.31559766763854,385.28522099353404 274.8210641399417,380.9456257668445 279.83199708454816,380.9456257668445" fill="none" stroke="url(#grad)" stroke-width="1" />
<polygon points="289.3527696793003,373.1343543588034 286.84730320699714,377.47394958549296 281.8363702623907,377.47394958549296 279.3309037900875,373.1343543588034 281.8363702623907,368.7947591321139 286.84730320699714,368.7947591321139" fill="none" stroke="url(#grad)" stroke-width="1" />
<polygon points="303.38338192419826,373.1343543588034 300.8779154518951,377.47394958549296 295.86698250728864,377.47394958549296 293.36151603498547,373.1343543588034 295.86698250728864,368.7947591321139 300.8779154518951,368.7947591321139" fill="none" stroke="url(#grad)" stroke-width="1" />
<polygon points="285.7448979591837,351.2627944162882 278.7295918367347,363.41366105101883 264.69897959183675,363.41366105101883 257.68367346938777,351.2627944162882 264.69897959183675,339.1119277815576 278.7295918367347,339.1119277815576" fill="rgba(59, 130, 246, 0.1)" stroke="url(#grad)" stroke-width="2" />
<polygon points="290.75583090379007,351.2627944162882 288.2503644314869,355.60238964297776 283.23943148688045,355.60238964297776 280.7339650145773,351.2627944162882 283.23943148688045,346.9231991895987 288.2503644314869,346.9231991895987" fill="none" stroke="url(#grad)" stroke-width="1" />
<polygon points="283.7405247813411,363.41366105101883 281.2350583090379,367.7532562777084 276.2241253644315,367.7532562777084 273.7186588921283,363.41366105101883 276.2241253644315,359.0740658243293 281.2350583090379,359.0740658243293" fill="none" stroke="url(#grad)" stroke-width="1" />
<polygon points="269.70991253644314,363.41366105101883 267.20444606414,367.7532562777084 262.1935131195335,367.7532562777084 259.68804664723035,363.41366105101883 262.1935131195335,359.0740658243293 267.20444606414,359.0740658243293" fill="none" stroke="url(#grad)" stroke-width="1" />
<polygon points="262.69460641399417,351.2627944162882 260.189139941691,355.60238964297776 255.17820699708457,355.60238964297776 252.67274052478135,351.2627944162882 255.17820699708457,346.9231991895987 260.189139941691,346.9231991895987" fill="none" stroke="url(#grad)" stroke-width="1" />
<polygon points="269.70991253644314,339.1119277815576 267.20444606414,343.45152300824714 262.1935131195335,343.45152300824714 259.68804664723035,339.1119277815576 262.1935131195335,334.77233255486806 267.20444606414,334.77233255486806" fill="none" stroke="url(#grad)" stroke-width="1" />
<polygon points="283.7405247813411,339.1119277815576 281.2350583090379,343.45152300824714 276.2241253644315,343.45152300824714 273.7186588921283,339.1119277815576 276.2241253644315,334.77233255486806 281.2350583090379,334.77233255486806" fill="none" stroke="url(#grad)" stroke-width="1" />
<polygon points="305.3877551020408,317.2403678390424 298.3724489795918,329.391234473773 284.34183673469386,329.391234473773 277.3265306122449,317.2403678390424 284.34183673469386,305.0895012043118 298.3724489795918,305.0895012043118" fill="rgba(59, 130, 246, 0.1)" stroke="url(#grad)" stroke-width="2" />
<polygon points="310.3986880466472,317.2403678390424 307.893221574344,321.57996306573193 302.88228862973756,321.57996306573193 300.3768221574344,317.2403678390424 302.88228862973756,312.90077261235285 307.893221574344,312.90077261235285" fill="none" stroke="url(#grad)" stroke-width="1" />
<polygon points="303.3833819241982,329.391234473773 300.87791545189503,333.73082970046255 295.8669825072886,333.73082970046255 293.3615160349854,329.391234473773 295.8669825072886,325.0516392470835 300.87791545189503,325.0516392470835" fill="none" stroke="url(#grad)" stroke-width="1" />
<polygon points="289.35276967930025,329.391234473773 286.8473032069971,333.73082970046255 281.83637026239063,333.73082970046255 279.33090379008746,329.391234473773 281.83637026239063,325.0516392470835 286.8473032069971,325.0516392470835" fill="none" stroke="url(#grad)" stroke-width="1" />
<polygon points="282.3374635568513,317.2403678390424 279.8319970845481,321.57996306573193 274.82106413994165,321.57996306573193 272.3155976676385,317.2403678390424 274.82106413994165,312.90077261235285 279.8319970845481,312.90077261235285" fill="none" stroke="url(#grad)" stroke-width="1" />
<polygon points="289.35276967930025,305.0895012043118 286.8473032069971,309.4290964310013 281.83637026239063,309.4290964310013 279.33090379008746,305.0895012043118 281.83637026239063,300.74990597762223 286.8473032069971,300.74990597762223" fill="none" stroke="url(#grad)" stroke-width="1" />
<polygon points="303.3833819241982,305.0895012043118 300.87791545189503,309.4290964310013 295.8669825072886,309.4290964310013 293.3615160349854,305.0895012043118 295.8669825072886,300.74990597762223 300.87791545189503,300.74990597762223" fill="none" stroke="url(#grad)" stroke-width="1" />
<polygon points="344.6734693877551,317.2403678390424 337.65816326530614,329.391234473773 323.6275510204082,329.391234473773 316.6122448979592,317.2403678390424 323.6275510204082,305.0895012043118 337.65816326530614,305.0895012043118" fill="rgba(59, 130, 246, 0.1)" stroke="url(#grad)" stroke-width="2" />
<polygon points="349.6844023323615,317.2403678390424 347.17893586005835,321.57996306573193 342.1680029154519,321.57996306573193 339.6625364431487,317.2403678390424 342.1680029154519,312.90077261235285 347.17893586005835,312.90077261235285" fill="none" stroke="url(#grad)" stroke-width="1" />
<polygon points="342.66909620991254,329.391234473773 340.16362973760937,333.73082970046255 335.1526967930029,333.73082970046255 332.64723032069975,329.391234473773 335.1526967930029,325.0516392470835 340.16362973760937,325.0516392470835" fill="none" stroke="url(#grad)" stroke-width="1" />
<polygon points="328.6384839650146,329.391234473773 326.1330174927114,333.73082970046255 321.12208454810497,333.73082970046255 318.6166180758018,329.391234473773 321.12208454810497,325.0516392470835 326.1330174927114,325.0516392470835" fill="none" stroke="url(#grad)" stroke-width="1" />
<polygon points="321.6231778425656,317.2403678390424 319.11771137026244,321.57996306573193 314.106778425656,321.57996306573193 311.6013119533528,317.2403678390424 314.106778425656,312.90077261235285 319.11771137026244,312.90077261235285" fill="none" stroke="url(#grad)" stroke-width="1" />
<polygon points="328.6384839650146,305.0895012043118 326.1330174927114,309.4290964310013 321.12208454810497,309.4290964310013 318.6166180758018,305.0895012043118 321.12208454810497,300.74990597762223 326.1330174927114,300.74990597762223" fill="none" stroke="url(#grad)" stroke-width="1" />
<polygon points="342.66909620991254,305.0895012043118 340.16362973760937,309.4290964310013 335.1526967930029,309.4290964310013 332.64723032069975,305.0895012043118 335.1526967930029,300.74990597762223 340.16362973760937,300.74990597762223" fill="none" stroke="url(#grad)" stroke-width="1" />
<polygon points="240.2857142857143,351.2627944162883 220.64285714285717,385.2852209935341 181.3571428571429,385.2852209935341 161.71428571428575,351.2627944162883 181.35714285714286,317.2403678390425 220.64285714285717,317.24036783904245" fill="none" stroke="url(#grad)" stroke-width="3" />
<polygon points="254.31632653061226,351.2627944162883 247.30102040816328,363.4136610510189 233.27040816326533,363.4136610510189 226.25510204081635,351.2627944162883 233.27040816326533,339.11192778155765 247.30102040816328,339.11192778155765" fill="rgba(59, 130, 246, 0.1)" stroke="url(#grad)" stroke-width="2" />
<polygon points="259.3272594752187,351.2627944162883 256.82179300291546,355.6023896429778 251.81086005830906,355.6023896429778 249.30539358600583,351.2627944162883 251.81086005830906,346.92319918959873 256.82179300291546,346.92319918959873" fill="none" stroke="url(#grad)" stroke-width="1" />
<polygon points="252.3119533527697,363.4136610510189 249.80648688046648,367.75325627770843 244.79555393586008,367.75325627770843 242.29008746355686,363.4136610510189 244.79555393586008,359.07406582432935 249.80648688046648,359.07406582432935" fill="none" stroke="url(#grad)" stroke-width="1" />
<polygon points="238.28134110787175,363.4136610510189 235.77587463556853,367.75325627770843 230.76494169096213,367.75325627770843 228.2594752186589,363.4136610510189 230.76494169096213,359.07406582432935 235.77587463556853,359.07406582432935" fill="none" stroke="url(#grad)" stroke-width="1" />
<polygon points="231.26603498542278,351.2627944162883 228.76056851311955,355.6023896429778 223.74963556851316,355.6023896429778 221.24416909620993,351.2627944162883 223.74963556851316,346.92319918959873 228.76056851311955,346.92319918959873" fill="none" stroke="url(#grad)" stroke-width="1" />
<polygon points="238.28134110787175,339.11192778155765 235.77587463556853,343.4515230082472 230.76494169096213,343.4515230082472 228.2594752186589,339.11192778155765 230.76494169096213,334.7723325548681 235.77587463556853,334.7723325548681" fill="none" stroke="url(#grad)" stroke-width="1" />
<polygon points="252.3119533527697,339.11192778155765 249.80648688046648,343.4515230082472 244.79555393586008,343.4515230082472 242.29008746355686,339.11192778155765 244.79555393586008,334.7723325548681 249.80648688046648,334.7723325548681" fill="none" stroke="url(#grad)" stroke-width="1" />
<polygon points="234.67346938775512,385.2852209935341 227.65816326530614,397.4360876282647 213.6275510204082,397.4360876282647 206.61224489795921,385.2852209935341 213.6275510204082,373.1343543588035 227.65816326530614,373.1343543588035" fill="rgba(59, 130, 246, 0.1)" stroke="url(#grad)" stroke-width="2" />
<polygon points="239.68440233236154,385.2852209935341 237.17893586005832,389.62481622022364 232.16800291545192,389.62481622022364 229.6625364431487,385.2852209935341 232.16800291545192,380.94562576684456 237.17893586005832,380.94562576684456" fill="none" stroke="url(#grad)" stroke-width="1" />
<polygon points="232.66909620991257,397.4360876282647 230.16362973760934,401.77568285495425 225.15269679300295,401.77568285495425 222.64723032069972,397.4360876282647 225.15269679300295,393.0964924015752 230.16362973760934,393.0964924015752" fill="none" stroke="url(#grad)" stroke-width="1" />
<polygon points="218.63848396501461,397.4360876282647 216.1330174927114,401.77568285495425 211.122084548105,401.77568285495425 208.61661807580177,397.4360876282647 211.122084548105,393.0964924015752 216.1330174927114,393.0964924015752" fill="none" stroke="url(#grad)" stroke-width="1" />
<polygon points="211.62317784256564,385.2852209935341 209.1177113702624,389.62481622022364 204.10677842565602,389.62481622022364 201.6013119533528,385.2852209935341 204.10677842565602,380.94562576684456 209.1177113702624,380.94562576684456" fill="none" stroke="url(#grad)" stroke-width="1" />
<polygon points="218.63848396501461,373.1343543588035 216.1330174927114,377.473949585493 211.122084548105,377.473949585493 208.61661807580177,373.1343543588035 211.122084548105,368.79475913211394 216.1330174927114,368.79475913211394" fill="none" stroke="url(#grad)" stroke-width="1" />
<polygon points="232.66909620991257,373.1343543588035 230.16362973760934,377.473949585493 225.15269679300295,377.473949585493 222.64723032069972,373.1343543588035 225.15269679300295,368.79475913211394 230.16362973760934,368.79475913211394" fill="none" stroke="url(#grad)" stroke-width="1" />
<polygon points="195.38775510204084,385.2852209935341 188.37244897959187,397.4360876282647 174.3418367346939,397.4360876282647 167.32653061224494,385.2852209935341 174.3418367346939,373.1343543588035 188.37244897959187,373.1343543588035" fill="rgba(59, 130, 246, 0.1)" stroke="url(#grad)" stroke-width="2" />
<polygon points="200.39868804664727,385.2852209935341 197.89322157434404,389.62481622022364 192.88228862973764,389.62481622022364 190.37682215743442,385.2852209935341 192.88228862973764,380.94562576684456 197.89322157434404,380.94562576684456" fill="none" stroke="url(#grad)" stroke-width="1" />
<polygon points="193.3833819241983,397.4360876282647 190.87791545189506,401.77568285495425 185.86698250728867,401.77568285495425 183.36151603498544,397.4360876282647 185.86698250728867,393.0964924015752 190.87791545189506,393.0964924015752" fill="none" stroke="url(#grad)" stroke-width="1" />
<polygon points="179.35276967930034,397.4360876282647 176.8473032069971,401.77568285495425 171.83637026239072,401.77568285495425 169.3309037900875,397.4360876282647 171.83637026239072,393.0964924015752 176.8473032069971,393.0964924015752" fill="none" stroke="url(#grad)" stroke-width="1" />
<polygon points="172.33746355685136,385.2852209935341 169.83199708454814,389.62481622022364 164.82106413994174,389.62481622022364 162.3155976676385,385.2852209935341 164.82106413994174,380.94562576684456 169.83199708454814,380.94562576684456" fill="none" stroke="url(#grad)" stroke-width="1" />
<polygon points="179.35276967930034,373.1343543588035 176.8473032069971,377.473949585493 171.83637026239072,377.473949585493 169.3309037900875,373.1343543588035 171.83637026239072,368.79475913211394 176.8473032069971,368.79475913211394" fill="none" stroke="url(#grad)" stroke-width="1" />
<polygon points="193.3833819241983,373.1343543588035 190.87791545189506,377.473949585493 185.86698250728867,377.473949585493 183.36151603498544,373.1343543588035 185.86698250728867,368.79475913211394 190.87791545189506,368.79475913211394" fill="none" stroke="url(#grad)" stroke-width="1" />
<polygon points="175.7448979591837,351.2627944162883 168.72959183673473,363.4136610510189 154.69897959183677,363.4136610510189 147.6836734693878,351.2627944162883 154.69897959183677,339.11192778155765 168.72959183673473,339.11192778155765" fill="rgba(59, 130, 246, 0.1)" stroke="url(#grad)" stroke-width="2" />
<polygon points="180.75583090379013,351.2627944162883 178.2503644314869,355.6023896429778 173.2394314868805,355.6023896429778 170.73396501457728,351.2627944162883 173.2394314868805,346.92319918959873 178.2503644314869,346.92319918959873" fill="none" stroke="url(#grad)" stroke-width="1" />
<polygon points="173.74052478134115,363.4136610510189 171.23505830903792,367.75325627770843 166.22412536443153,367.75325627770843 163.7186588921283,363.4136610510189 166.22412536443153,359.07406582432935 171.23505830903792,359.07406582432935" fill="none" stroke="url(#grad)" stroke-width="1" />
<polygon points="159.7099125364432,363.4136610510189 157.20444606413997,367.75325627770843 152.19351311953358,367.75325627770843 149.68804664723035,363.4136610510189 152.19351311953358,359.07406582432935 157.20444606413997,359.07406582432935" fill="none" stroke="url(#grad)" stroke-width="1" />
<polygon points="152.69460641399422,351.2627944162883 150.189139941691,355.6023896429778 145.1782069970846,355.6023896429778 142.67274052478137,351.2627944162883 145.1782069970846,346.92319918959873 150.189139941691,346.92319918959873" fill="none" stroke="url(#grad)" stroke-width="1" />
<polygon points="159.7099125364432,339.11192778155765 157.20444606413997,343.4515230082472 152.19351311953358,343.4515230082472 149.68804664723035,339.11192778155765 152.19351311953358,334.7723325548681 157.20444606413997,334.7723325548681" fill="none" stroke="url(#grad)" stroke-width="1" />
<polygon points="173.74052478134115,339.11192778155765 171.23505830903792,343.4515230082472 166.22412536443153,343.4515230082472 163.7186588921283,339.11192778155765 166.22412536443153,334.7723325548681 171.23505830903792,334.7723325548681" fill="none" stroke="url(#grad)" stroke-width="1" />
<polygon points="195.3877551020408,317.2403678390425 188.37244897959184,329.3912344737731 174.34183673469389,329.3912344737731 167.3265306122449,317.2403678390425 174.34183673469389,305.0895012043119 188.37244897959184,305.0895012043119" fill="rgba(59, 130, 246, 0.1)" stroke="url(#grad)" stroke-width="2" />
<polygon points="200.39868804664724,317.2403678390425 197.893221574344,321.57996306573204 192.88228862973762,321.57996306573204 190.3768221574344,317.2403678390425 192.88228862973762,312.90077261235297 197.893221574344,312.90077261235297" fill="none" stroke="url(#grad)" stroke-width="1" />
<polygon points="193.38338192419826,329.3912344737731 190.87791545189503,333.73082970046266 185.86698250728864,333.73082970046266 183.3615160349854,329.3912344737731 185.86698250728864,325.0516392470836 190.87791545189503,325.0516392470836" fill="none" stroke="url(#grad)" stroke-width="1" />
<polygon points="179.3527696793003,329.3912344737731 176.84730320699708,333.73082970046266 171.8363702623907,333.73082970046266 169.33090379008746,329.3912344737731 171.8363702623907,325.0516392470836 176.84730320699708,325.0516392470836" fill="none" stroke="url(#grad)" stroke-width="1" />
<polygon points="172.33746355685133,317.2403678390425 169.8319970845481,321.57996306573204 164.8210641399417,321.57996306573204 162.31559766763849,317.2403678390425 164.8210641399417,312.90077261235297 169.8319970845481,312.90077261235297" fill="none" stroke="url(#grad)" stroke-width="1" />
<polygon points="179.3527696793003,305.0895012043119 176.84730320699708,309.4290964310014 171.8363702623907,309.4290964310014 169.33090379008746,305.0895012043119 171.8363702623907,300.74990597762235 176.84730320699708,300.74990597762235" fill="none" stroke="url(#grad)" stroke-width="1" />
<polygon points="193.38338192419826,305.0895012043119 190.87791545189503,309.4290964310014 185.86698250728864,309.4290964310014 183.3615160349854,305.0895012043119 185.86698250728864,300.74990597762235 190.87791545189503,300.74990597762235" fill="none" stroke="url(#grad)" stroke-width="1" />
<polygon points="234.67346938775512,317.24036783904245 227.65816326530614,329.39123447377307 213.6275510204082,329.39123447377307 206.61224489795921,317.24036783904245 213.6275510204082,305.08950120431183 227.65816326530614,305.08950120431183" fill="rgba(59, 130, 246, 0.1)" stroke="url(#grad)" stroke-width="2" />
<polygon points="239.68440233236154,317.24036783904245 237.17893586005832,321.579963065732 232.16800291545192,321.579963065732 229.6625364431487,317.24036783904245 232.16800291545192,312.9007726123529 237.17893586005832,312.9007726123529" fill="none" stroke="url(#grad)" stroke-width="1" />
<polygon points="232.66909620991257,329.39123447377307 230.16362973760934,333.7308297004626 225.15269679300295,333.7308297004626 222.64723032069972,329.39123447377307 225.15269679300295,325.05163924708353 230.16362973760934,325.05163924708353" fill="none" stroke="url(#grad)" stroke-width="1" />
<polygon points="218.63848396501461,329.39123447377307 216.1330174927114,333.7308297004626 211.122084548105,333.7308297004626 208.61661807580177,329.39123447377307 211.122084548105,325.05163924708353 216.1330174927114,325.05163924708353" fill="none" stroke="url(#grad)" stroke-width="1" />
<polygon points="211.62317784256564,317.24036783904245 209.1177113702624,321.579963065732 204.10677842565602,321.579963065732 201.6013119533528,317.24036783904245 204.10677842565602,312.9007726123529 209.1177113702624,312.9007726123529" fill="none" stroke="url(#grad)" stroke-width="1" />
<polygon points="218.63848396501461,305.08950120431183 216.1330174927114,309.42909643100137 211.122084548105,309.42909643100137 208.61661807580177,305.08950120431183 211.122084548105,300.7499059776223 216.1330174927114,300.7499059776223" fill="none" stroke="url(#grad)" stroke-width="1" />
<polygon points="232.66909620991257,305.08950120431183 230.16362973760934,309.42909643100137 225.15269679300295,309.42909643100137 222.64723032069972,305.08950120431183 225.15269679300295,300.7499059776223 230.16362973760934,300.7499059776223" fill="none" stroke="url(#grad)" stroke-width="1" />
<polygon points="185.28571428571428,256 165.64285714285714,290.0224265772458 126.35714285714286,290.0224265772458 106.71428571428572,256 126.35714285714283,221.9775734227542 165.64285714285714,221.9775734227542" fill="none" stroke="url(#grad)" stroke-width="3" />
<polygon points="199.31632653061223,256 192.30102040816325,268.1508666347306 178.2704081632653,268.1508666347306 171.25510204081633,256 178.2704081632653,243.84913336526935 192.30102040816325,243.84913336526935" fill="rgba(59, 130, 246, 0.1)" stroke="url(#grad)" stroke-width="2" />
<polygon points="204.32725947521865,256 201.82179300291543,260.33959522668954 196.81086005830903,260.33959522668954 194.3053935860058,256 196.81086005830903,251.6604047733105 201.82179300291543,251.6604047733105" fill="none" stroke="url(#grad)" stroke-width="1" />
<polygon points="197.31195335276968,268.1508666347306 194.80648688046645,272.49046186142016 189.79555393586006,272.49046186142016 187.29008746355683,268.1508666347306 189.79555393586006,263.8112714080411 194.80648688046645,263.8112714080411" fill="none" stroke="url(#grad)" stroke-width="1" />
<polygon points="183.28134110787173,268.1508666347306 180.7758746355685,272.49046186142016 175.7649416909621,272.49046186142016 173.25947521865888,268.1508666347306 175.7649416909621,263.8112714080411 180.7758746355685,263.8112714080411" fill="none" stroke="url(#grad)" stroke-width="1" />
<polygon points="176.26603498542275,256 173.76056851311952,260.33959522668954 168.74963556851313,260.33959522668954 166.2441690962099,256 168.74963556851313,251.6604047733105 173.76056851311952,251.6604047733105" fill="none" stroke="url(#grad)" stroke-width="1" />
<polygon points="183.28134110787173,243.84913336526935 180.7758746355685,248.18872859195886 175.7649416909621,248.18872859195886 173.25947521865888,243.84913336526935 175.7649416909621,239.50953813857984 180.7758746355685,239.50953813857984" fill="none" stroke="url(#grad)" stroke-width="1" />
<polygon points="197.31195335276968,243.84913336526935 194.80648688046645,248.18872859195886 189.79555393586006,248.18872859195886 187.29008746355683,243.84913336526935 189.79555393586006,239.50953813857984 194.80648688046645,239.50953813857984" fill="none" stroke="url(#grad)" stroke-width="1" />
<polygon points="179.6734693877551,290.0224265772458 172.65816326530611,302.17329321197644 158.62755102040816,302.17329321197644 151.6122448979592,290.0224265772458 158.62755102040816,277.8715599425152 172.65816326530611,277.8715599425152" fill="rgba(59, 130, 246, 0.1)" stroke="url(#grad)" stroke-width="2" />
<polygon points="184.68440233236151,290.0224265772458 182.1789358600583,294.36202180393536 177.1680029154519,294.36202180393536 174.66253644314867,290.0224265772458 177.1680029154519,285.6828313505563 182.1789358600583,285.6828313505563" fill="none" stroke="url(#grad)" stroke-width="1" />
<polygon points="177.66909620991254,302.17329321197644 175.1636297376093,306.512888438666 170.15269679300292,306.512888438666 167.6472303206997,302.17329321197644 170.15269679300292,297.8336979852869 175.1636297376093,297.8336979852869" fill="none" stroke="url(#grad)" stroke-width="1" />
<polygon points="163.6384839650146,302.17329321197644 161.13301749271136,306.512888438666 156.12208454810497,306.512888438666 153.61661807580174,302.17329321197644 156.12208454810497,297.8336979852869 161.13301749271136,297.8336979852869" fill="none" stroke="url(#grad)" stroke-width="1" />
<polygon points="156.6231778425656,290.0224265772458 154.11771137026238,294.36202180393536 149.106778425656,294.36202180393536 146.60131195335276,290.0224265772458 149.106778425656,285.6828313505563 154.11771137026238,285.6828313505563" fill="none" stroke="url(#grad)" stroke-width="1" />
<polygon points="163.6384839650146,277.8715599425152 161.13301749271136,282.21115516920474 156.12208454810497,282.21115516920474 153.61661807580174,277.8715599425152 156.12208454810497,273.53196471582567 161.13301749271136,273.53196471582567" fill="none" stroke="url(#grad)" stroke-width="1" />
<polygon points="177.66909620991254,277.8715599425152 175.1636297376093,282.21115516920474 170.15269679300292,282.21115516920474 167.6472303206997,277.8715599425152 170.15269679300292,273.53196471582567 175.1636297376093,273.53196471582567" fill="none" stroke="url(#grad)" stroke-width="1" />
<polygon points="140.3877551020408,290.0224265772458 133.37244897959184,302.17329321197644 119.34183673469389,302.17329321197644 112.32653061224491,290.0224265772458 119.34183673469387,277.8715599425152 133.37244897959184,277.8715599425152" fill="rgba(59, 130, 246, 0.1)" stroke="url(#grad)" stroke-width="2" />
<polygon points="145.39868804664724,290.0224265772458 142.893221574344,294.36202180393536 137.88228862973762,294.36202180393536 135.3768221574344,290.0224265772458 137.88228862973762,285.6828313505563 142.893221574344,285.6828313505563" fill="none" stroke="url(#grad)" stroke-width="1" />
<polygon points="138.38338192419826,302.17329321197644 135.87791545189503,306.512888438666 130.86698250728864,306.512888438666 128.3615160349854,302.17329321197644 130.86698250728864,297.8336979852869 135.87791545189503,297.8336979852869" fill="none" stroke="url(#grad)" stroke-width="1" />
<polygon points="124.3527696793003,302.17329321197644 121.8473032069971,306.512888438666 116.83637026239067,306.512888438666 114.33090379008748,302.17329321197644 116.83637026239067,297.8336979852869 121.8473032069971,297.8336979852869" fill="none" stroke="url(#grad)" stroke-width="1" />
<polygon points="117.33746355685132,290.0224265772458 114.83199708454812,294.36202180393536 109.8210641399417,294.36202180393536 107.3155976676385,290.0224265772458 109.8210641399417,285.6828313505563 114.83199708454812,285.6828313505563" fill="none" stroke="url(#grad)" stroke-width="1" />
<polygon points="124.35276967930028,277.8715599425152 121.84730320699708,282.21115516920474 116.83637026239066,282.21115516920474 114.33090379008746,277.8715599425152 116.83637026239066,273.53196471582567 121.84730320699708,273.53196471582567" fill="none" stroke="url(#grad)" stroke-width="1" />
<polygon points="138.38338192419826,277.8715599425152 135.87791545189503,282.21115516920474 130.86698250728864,282.21115516920474 128.3615160349854,277.8715599425152 130.86698250728864,273.53196471582567 135.87791545189503,273.53196471582567" fill="none" stroke="url(#grad)" stroke-width="1" />
<polygon points="120.74489795918367,256 113.7295918367347,268.1508666347306 99.69897959183675,268.1508666347306 92.68367346938777,256 99.69897959183673,243.84913336526935 113.7295918367347,243.84913336526935" fill="rgba(59, 130, 246, 0.1)" stroke="url(#grad)" stroke-width="2" />
<polygon points="125.75583090379008,256 123.25036443148689,260.33959522668954 118.23943148688046,260.33959522668954 115.73396501457727,256 118.23943148688046,251.6604047733105 123.25036443148689,251.6604047733105" fill="none" stroke="url(#grad)" stroke-width="1" />
<polygon points="118.74052478134111,268.1508666347306 116.23505830903791,272.49046186142016 111.22412536443149,272.49046186142016 108.71865889212829,268.1508666347306 111.22412536443149,263.8112714080411 116.23505830903791,263.8112714080411" fill="none" stroke="url(#grad)" stroke-width="1" />
<polygon points="104.70991253644316,268.1508666347306 102.20444606413996,272.49046186142016 97.19351311953353,272.49046186142016 94.68804664723034,268.1508666347306 97.19351311953353,263.8112714080411 102.20444606413996,263.8112714080411" fill="none" stroke="url(#grad)" stroke-width="1" />
<polygon points="97.69460641399418,256 95.18913994169098,260.33959522668954 90.17820699708456,260.33959522668954 87.67274052478136,256 90.17820699708456,251.6604047733105 95.18913994169098,251.6604047733105" fill="none" stroke="url(#grad)" stroke-width="1" />
<polygon points="104.70991253644314,243.84913336526935 102.20444606413994,248.18872859195886 97.19351311953352,248.18872859195886 94.68804664723032,243.84913336526935 97.19351311953352,239.50953813857984 102.20444606413994,239.50953813857984" fill="none" stroke="url(#grad)" stroke-width="1" />
<polygon points="118.74052478134111,243.84913336526935 116.23505830903791,248.18872859195886 111.22412536443149,248.18872859195886 108.71865889212829,243.84913336526935 111.22412536443149,239.50953813857984 116.23505830903791,239.50953813857984" fill="none" stroke="url(#grad)" stroke-width="1" />
<polygon points="140.38775510204079,221.9775734227542 133.3724489795918,234.12844005748485 119.34183673469386,234.12844005748485 112.32653061224488,221.9775734227542 119.34183673469384,209.82670678802356 133.3724489795918,209.82670678802356" fill="rgba(59, 130, 246, 0.1)" stroke="url(#grad)" stroke-width="2" />
<polygon points="145.3986880466472,221.9775734227542 142.89322157434398,226.31716864944372 137.8822886297376,226.31716864944372 135.37682215743436,221.9775734227542 137.8822886297376,217.6379781960647 142.89322157434398,217.6379781960647" fill="none" stroke="url(#grad)" stroke-width="1" />
<polygon points="138.38338192419823,234.12844005748485 135.877915451895,238.46803528417436 130.8669825072886,238.46803528417436 128.36151603498539,234.12844005748485 130.8669825072886,229.78884483079534 135.877915451895,229.78884483079534" fill="none" stroke="url(#grad)" stroke-width="1" />
<polygon points="124.35276967930027,234.12844005748485 121.84730320699707,238.46803528417436 116.83637026239064,238.46803528417436 114.33090379008745,234.12844005748485 116.83637026239064,229.78884483079534 121.84730320699707,229.78884483079534" fill="none" stroke="url(#grad)" stroke-width="1" />
<polygon points="117.33746355685129,221.9775734227542 114.83199708454809,226.31716864944372 109.82106413994167,226.31716864944372 107.31559766763847,221.9775734227542 109.82106413994167,217.6379781960647 114.83199708454809,217.6379781960647" fill="none" stroke="url(#grad)" stroke-width="1" />
<polygon points="124.35276967930025,209.82670678802356 121.84730320699705,214.16630201471307 116.83637026239063,214.16630201471307 114.33090379008743,209.82670678802356 116.83637026239063,205.48711156133405 121.84730320699705,205.48711156133405" fill="none" stroke="url(#grad)" stroke-width="1" />
<polygon points="138.38338192419823,209.82670678802356 135.877915451895,214.16630201471307 130.8669825072886,214.16630201471307 128.36151603498539,209.82670678802356 130.8669825072886,205.48711156133405 135.877915451895,205.48711156133405" fill="none" stroke="url(#grad)" stroke-width="1" />
<polygon points="179.6734693877551,221.9775734227542 172.65816326530611,234.12844005748485 158.62755102040816,234.12844005748485 151.6122448979592,221.9775734227542 158.62755102040816,209.82670678802356 172.65816326530611,209.82670678802356" fill="rgba(59, 130, 246, 0.1)" stroke="url(#grad)" stroke-width="2" />
<polygon points="184.68440233236151,221.9775734227542 182.1789358600583,226.31716864944372 177.1680029154519,226.31716864944372 174.66253644314867,221.9775734227542 177.1680029154519,217.6379781960647 182.1789358600583,217.6379781960647" fill="none" stroke="url(#grad)" stroke-width="1" />
<polygon points="177.66909620991254,234.12844005748485 175.1636297376093,238.46803528417436 170.15269679300292,238.46803528417436 167.6472303206997,234.12844005748485 170.15269679300292,229.78884483079534 175.1636297376093,229.78884483079534" fill="none" stroke="url(#grad)" stroke-width="1" />
<polygon points="163.6384839650146,234.12844005748485 161.13301749271136,238.46803528417436 156.12208454810497,238.46803528417436 153.61661807580174,234.12844005748485 156.12208454810497,229.78884483079534 161.13301749271136,229.78884483079534" fill="none" stroke="url(#grad)" stroke-width="1" />
<polygon points="156.6231778425656,221.9775734227542 154.11771137026238,226.31716864944372 149.106778425656,226.31716864944372 146.60131195335276,221.9775734227542 149.106778425656,217.6379781960647 154.11771137026238,217.6379781960647" fill="none" stroke="url(#grad)" stroke-width="1" />
<polygon points="163.6384839650146,209.82670678802356 161.13301749271136,214.16630201471307 156.12208454810497,214.16630201471307 153.61661807580174,209.82670678802356 156.12208454810497,205.48711156133405 161.13301749271136,205.48711156133405" fill="none" stroke="url(#grad)" stroke-width="1" />
<polygon points="177.66909620991254,209.82670678802356 175.1636297376093,214.16630201471307 170.15269679300292,214.16630201471307 167.6472303206997,209.82670678802356 170.15269679300292,205.48711156133405 175.1636297376093,205.48711156133405" fill="none" stroke="url(#grad)" stroke-width="1" />
<polygon points="240.28571428571422,160.73720558371178 220.64285714285708,194.75963216095758 181.3571428571428,194.75963216095758 161.71428571428567,160.73720558371178 181.35714285714278,126.71477900646599 220.64285714285708,126.71477900646599" fill="none" stroke="url(#grad)" stroke-width="3" />
<polygon points="254.31632653061217,160.73720558371178 247.3010204081632,172.88807221844243 233.27040816326524,172.88807221844243 226.25510204081627,160.73720558371178 233.27040816326524,148.58633894898114 247.3010204081632,148.58633894898114" fill="rgba(59, 130, 246, 0.1)" stroke="url(#grad)" stroke-width="2" />
<polygon points="259.32725947521857,160.73720558371178 256.8217930029154,165.0768008104013 251.81086005830898,165.0768008104013 249.30539358600575,160.73720558371178 251.81086005830898,156.39761035702227 256.8217930029154,156.39761035702227" fill="none" stroke="url(#grad)" stroke-width="1" />
<polygon points="252.31195335276962,172.88807221844243 249.8064868804664,177.22766744513194 244.79555393586,177.22766744513194 242.29008746355677,172.88807221844243 244.79555393586,168.54847699175292 249.8064868804664,168.54847699175292" fill="none" stroke="url(#grad)" stroke-width="1" />
<polygon points="238.28134110787167,172.88807221844243 235.77587463556844,177.22766744513194 230.76494169096205,177.22766744513194 228.25947521865882,172.88807221844243 230.76494169096205,168.54847699175292 235.77587463556844,168.54847699175292" fill="none" stroke="url(#grad)" stroke-width="1" />
<polygon points="231.2660349854227,160.73720558371178 228.76056851311947,165.0768008104013 223.74963556851307,165.0768008104013 221.24416909620984,160.73720558371178 223.74963556851307,156.39761035702227 228.76056851311947,156.39761035702227" fill="none" stroke="url(#grad)" stroke-width="1" />
<polygon points="238.28134110787167,148.58633894898114 235.77587463556844,152.92593417567065 230.76494169096205,152.92593417567065 228.25947521865882,148.58633894898114 230.76494169096205,144.24674372229163 235.77587463556844,144.24674372229163" fill="none" stroke="url(#grad)" stroke-width="1" />
<polygon points="252.31195335276962,148.58633894898114 249.8064868804664,152.92593417567065 244.79555393586,152.92593417567065 242.29008746355677,148.58633894898114 244.79555393586,144.24674372229163 249.8064868804664,144.24674372229163" fill="none" stroke="url(#grad)" stroke-width="1" />
<polygon points="234.67346938775503,194.75963216095758 227.65816326530606,206.91049879568823 213.6275510204081,206.91049879568823 206.61224489795913,194.75963216095758 213.6275510204081,182.60876552622693 227.65816326530606,182.60876552622693" fill="rgba(59, 130, 246, 0.1)" stroke="url(#grad)" stroke-width="2" />
<polygon points="239.68440233236146,194.75963216095758 237.17893586005823,199.0992273876471 232.16800291545184,199.0992273876471 229.6625364431486,194.75963216095758 232.16800291545184,190.42003693426807 237.17893586005823,190.42003693426807" fill="none" stroke="url(#grad)" stroke-width="1" />
<polygon points="232.66909620991248,206.91049879568823 230.16362973760926,211.25009402237774 225.15269679300286,211.25009402237774 222.64723032069963,206.91049879568823 225.15269679300286,202.57090356899872 230.16362973760926,202.57090356899872" fill="none" stroke="url(#grad)" stroke-width="1" />
<polygon points="218.63848396501453,206.91049879568823 216.1330174927113,211.25009402237774 211.1220845481049,211.25009402237774 208.61661807580168,206.91049879568823 211.1220845481049,202.57090356899872 216.1330174927113,202.57090356899872" fill="none" stroke="url(#grad)" stroke-width="1" />
<polygon points="211.62317784256555,194.75963216095758 209.11771137026233,199.0992273876471 204.10677842565593,199.0992273876471 201.6013119533527,194.75963216095758 204.10677842565593,190.42003693426807 209.11771137026233,190.42003693426807" fill="none" stroke="url(#grad)" stroke-width="1" />
<polygon points="218.63848396501453,182.60876552622693 216.1330174927113,186.94836075291644 211.1220845481049,186.94836075291644 208.61661807580168,182.60876552622693 211.1220845481049,178.26917029953742 216.1330174927113,178.26917029953742" fill="none" stroke="url(#grad)" stroke-width="1" />
<polygon points="232.66909620991248,182.60876552622693 230.16362973760926,186.94836075291644 225.15269679300286,186.94836075291644 222.64723032069963,182.60876552622693 225.15269679300286,178.26917029953742 230.16362973760926,178.26917029953742" fill="none" stroke="url(#grad)" stroke-width="1" />
<polygon points="195.38775510204076,194.75963216095758 188.37244897959178,206.91049879568823 174.34183673469383,206.91049879568823 167.32653061224485,194.75963216095758 174.34183673469383,182.60876552622693 188.37244897959178,182.60876552622693" fill="rgba(59, 130, 246, 0.1)" stroke="url(#grad)" stroke-width="2" />
<polygon points="200.39868804664718,194.75963216095758 197.89322157434395,199.0992273876471 192.88228862973756,199.0992273876471 190.37682215743433,194.75963216095758 192.88228862973756,190.42003693426807 197.89322157434395,190.42003693426807" fill="none" stroke="url(#grad)" stroke-width="1" />
<polygon points="193.3833819241982,206.91049879568823 190.87791545189498,211.25009402237774 185.86698250728858,211.25009402237774 183.36151603498536,206.91049879568823 185.86698250728858,202.57090356899872 190.87791545189498,202.57090356899872" fill="none" stroke="url(#grad)" stroke-width="1" />
<polygon points="179.35276967930025,206.91049879568823 176.84730320699703,211.25009402237774 171.83637026239063,211.25009402237774 169.3309037900874,206.91049879568823 171.83637026239063,202.57090356899872 176.84730320699703,202.57090356899872" fill="none" stroke="url(#grad)" stroke-width="1" />
<polygon points="172.33746355685128,194.75963216095758 169.83199708454805,199.0992273876471 164.82106413994165,199.0992273876471 162.31559766763843,194.75963216095758 164.82106413994165,190.42003693426807 169.83199708454805,190.42003693426807" fill="none" stroke="url(#grad)" stroke-width="1" />
<polygon points="179.35276967930025,182.60876552622693 176.84730320699703,186.94836075291644 171.83637026239063,186.94836075291644 169.3309037900874,182.60876552622693 171.83637026239063,178.26917029953742 176.84730320699703,178.26917029953742" fill="none" stroke="url(#grad)" stroke-width="1" />
<polygon points="193.3833819241982,182.60876552622693 190.87791545189498,186.94836075291644 185.86698250728858,186.94836075291644 183.36151603498536,182.60876552622693 185.86698250728858,178.26917029953742 190.87791545189498,178.26917029953742" fill="none" stroke="url(#grad)" stroke-width="1" />
<polygon points="175.74489795918362,160.73720558371178 168.72959183673464,172.88807221844243 154.6989795918367,172.88807221844243 147.6836734693877,160.73720558371178 154.6989795918367,148.58633894898114 168.72959183673464,148.58633894898114" fill="rgba(59, 130, 246, 0.1)" stroke="url(#grad)" stroke-width="2" />
<polygon points="180.75583090379004,160.73720558371178 178.25036443148682,165.0768008104013 173.23943148688042,165.0768008104013 170.7339650145772,160.73720558371178 173.23943148688042,156.39761035702227 178.25036443148682,156.39761035702227" fill="none" stroke="url(#grad)" stroke-width="1" />
<polygon points="173.74052478134107,172.88807221844243 171.23505830903784,177.22766744513194 166.22412536443144,177.22766744513194 163.71865889212822,172.88807221844243 166.22412536443144,168.54847699175292 171.23505830903784,168.54847699175292" fill="none" stroke="url(#grad)" stroke-width="1" />
<polygon points="159.7099125364431,172.88807221844243 157.2044460641399,177.22766744513194 152.1935131195335,177.22766744513194 149.68804664723027,172.88807221844243 152.1935131195335,168.54847699175292 157.2044460641399,168.54847699175292" fill="none" stroke="url(#grad)" stroke-width="1" />
<polygon points="152.69460641399414,160.73720558371178 150.1891399416909,165.0768008104013 145.17820699708452,165.0768008104013 142.6727405247813,160.73720558371178 145.17820699708452,156.39761035702227 150.1891399416909,156.39761035702227" fill="none" stroke="url(#grad)" stroke-width="1" />
<polygon points="159.7099125364431,148.58633894898114 157.2044460641399,152.92593417567065 152.1935131195335,152.92593417567065 149.68804664723027,148.58633894898114 152.1935131195335,144.24674372229163 157.2044460641399,144.24674372229163" fill="none" stroke="url(#grad)" stroke-width="1" />
<polygon points="173.74052478134107,148.58633894898114 171.23505830903784,152.92593417567065 166.22412536443144,152.92593417567065 163.71865889212822,148.58633894898114 166.22412536443144,144.24674372229163 171.23505830903784,144.24674372229163" fill="none" stroke="url(#grad)" stroke-width="1" />
<polygon points="195.38775510204073,126.71477900646599 188.37244897959175,138.86564564119664 174.3418367346938,138.86564564119664 167.32653061224482,126.71477900646599 174.3418367346938,114.56391237173534 188.37244897959175,114.56391237173534" fill="rgba(59, 130, 246, 0.1)" stroke="url(#grad)" stroke-width="2" />
<polygon points="200.39868804664715,126.71477900646599 197.89322157434393,131.0543742331555 192.88228862973753,131.0543742331555 190.3768221574343,126.71477900646599 192.88228862973753,122.37518377977648 197.89322157434393,122.37518377977648" fill="none" stroke="url(#grad)" stroke-width="1" />
<polygon points="193.38338192419818,138.86564564119664 190.87791545189495,143.20524086788615 185.86698250728855,143.20524086788615 183.36151603498533,138.86564564119664 185.86698250728855,134.52605041450713 190.87791545189495,134.52605041450713" fill="none" stroke="url(#grad)" stroke-width="1" />
<polygon points="179.35276967930022,138.86564564119664 176.847303206997,143.20524086788615 171.8363702623906,143.20524086788615 169.33090379008738,138.86564564119664 171.8363702623906,134.52605041450713 176.847303206997,134.52605041450713" fill="none" stroke="url(#grad)" stroke-width="1" />
<polygon points="172.33746355685125,126.71477900646599 169.83199708454802,131.0543742331555 164.82106413994163,131.0543742331555 162.3155976676384,126.71477900646599 164.82106413994163,122.37518377977648 169.83199708454802,122.37518377977648" fill="none" stroke="url(#grad)" stroke-width="1" />
<polygon points="179.35276967930022,114.56391237173534 176.847303206997,118.90350759842485 171.8363702623906,118.90350759842485 169.33090379008738,114.56391237173534 171.8363702623906,110.22431714504583 176.847303206997,110.22431714504583" fill="none" stroke="url(#grad)" stroke-width="1" />
<polygon points="193.38338192419818,114.56391237173534 190.87791545189495,118.90350759842485 185.86698250728855,118.90350759842485 183.36151603498533,114.56391237173534 185.86698250728855,110.22431714504583 190.87791545189495,110.22431714504583" fill="none" stroke="url(#grad)" stroke-width="1" />
<polygon points="234.67346938775503,126.71477900646599 227.65816326530606,138.86564564119664 213.6275510204081,138.86564564119664 206.61224489795913,126.71477900646599 213.6275510204081,114.56391237173534 227.65816326530606,114.56391237173534" fill="rgba(59, 130, 246, 0.1)" stroke="url(#grad)" stroke-width="2" />
<polygon points="239.68440233236146,126.71477900646599 237.17893586005823,131.0543742331555 232.16800291545184,131.0543742331555 229.6625364431486,126.71477900646599 232.16800291545184,122.37518377977648 237.17893586005823,122.37518377977648" fill="none" stroke="url(#grad)" stroke-width="1" />
<polygon points="232.66909620991248,138.86564564119664 230.16362973760926,143.20524086788615 225.15269679300286,143.20524086788615 222.64723032069963,138.86564564119664 225.15269679300286,134.52605041450713 230.16362973760926,134.52605041450713" fill="none" stroke="url(#grad)" stroke-width="1" />
<polygon points="218.63848396501453,138.86564564119664 216.1330174927113,143.20524086788615 211.1220845481049,143.20524086788615 208.61661807580168,138.86564564119664 211.1220845481049,134.52605041450713 216.1330174927113,134.52605041450713" fill="none" stroke="url(#grad)" stroke-width="1" />
<polygon points="211.62317784256555,126.71477900646599 209.11771137026233,131.0543742331555 204.10677842565593,131.0543742331555 201.6013119533527,126.71477900646599 204.10677842565593,122.37518377977648 209.11771137026233,122.37518377977648" fill="none" stroke="url(#grad)" stroke-width="1" />
<polygon points="218.63848396501453,114.56391237173534 216.1330174927113,118.90350759842485 211.1220845481049,118.90350759842485 208.61661807580168,114.56391237173534 211.1220845481049,110.22431714504583 216.1330174927113,110.22431714504583" fill="none" stroke="url(#grad)" stroke-width="1" />
<polygon points="232.66909620991248,114.56391237173534 230.16362973760926,118.90350759842485 225.15269679300286,118.90350759842485 222.64723032069963,114.56391237173534 225.15269679300286,110.22431714504583 230.16362973760926,110.22431714504583" fill="none" stroke="url(#grad)" stroke-width="1" />
<polygon points="350.2857142857143,160.73720558371176 330.64285714285717,194.75963216095755 291.3571428571429,194.75963216095755 271.7142857142857,160.73720558371176 291.35714285714283,126.71477900646596 330.64285714285717,126.71477900646596" fill="none" stroke="url(#grad)" stroke-width="3" />
<polygon points="364.31632653061223,160.73720558371176 357.30102040816325,172.8880722184424 343.2704081632653,172.8880722184424 336.2551020408163,160.73720558371176 343.2704081632653,148.5863389489811 357.30102040816325,148.5863389489811" fill="rgba(59, 130, 246, 0.1)" stroke="url(#grad)" stroke-width="2" />
<polygon points="369.3272594752186,160.73720558371176 366.82179300291546,165.07680081040127 361.810860058309,165.07680081040127 359.30539358600583,160.73720558371176 361.810860058309,156.39761035702224 366.82179300291546,156.39761035702224" fill="none" stroke="url(#grad)" stroke-width="1" />
<polygon points="362.31195335276965,172.8880722184424 359.8064868804665,177.2276674451319 354.79555393586,177.2276674451319 352.29008746355686,172.8880722184424 354.79555393586,168.5484769917529 359.8064868804665,168.5484769917529" fill="none" stroke="url(#grad)" stroke-width="1" />
<polygon points="348.2813411078717,172.8880722184424 345.7758746355685,177.2276674451319 340.7649416909621,177.2276674451319 338.2594752186589,172.8880722184424 340.7649416909621,168.5484769917529 345.7758746355685,168.5484769917529" fill="none" stroke="url(#grad)" stroke-width="1" />
<polygon points="341.2660349854227,160.73720558371176 338.76056851311955,165.07680081040127 333.7496355685131,165.07680081040127 331.24416909620993,160.73720558371176 333.7496355685131,156.39761035702224 338.76056851311955,156.39761035702224" fill="none" stroke="url(#grad)" stroke-width="1" />
<polygon points="348.2813411078717,148.5863389489811 345.7758746355685,152.92593417567062 340.7649416909621,152.92593417567062 338.2594752186589,148.5863389489811 340.7649416909621,144.2467437222916 345.7758746355685,144.2467437222916" fill="none" stroke="url(#grad)" stroke-width="1" />
<polygon points="362.31195335276965,148.5863389489811 359.8064868804665,152.92593417567062 354.79555393586,152.92593417567062 352.29008746355686,148.5863389489811 354.79555393586,144.2467437222916 359.8064868804665,144.2467437222916" fill="none" stroke="url(#grad)" stroke-width="1" />
<polygon points="344.6734693877551,194.75963216095755 337.65816326530614,206.9104987956882 323.6275510204082,206.9104987956882 316.6122448979592,194.75963216095755 323.6275510204082,182.6087655262269 337.65816326530614,182.6087655262269" fill="rgba(59, 130, 246, 0.1)" stroke="url(#grad)" stroke-width="2" />
<polygon points="349.6844023323615,194.75963216095755 347.17893586005835,199.09922738764706 342.1680029154519,199.09922738764706 339.6625364431487,194.75963216095755 342.1680029154519,190.42003693426804 347.17893586005835,190.42003693426804" fill="none" stroke="url(#grad)" stroke-width="1" />
<polygon points="342.66909620991254,206.9104987956882 340.16362973760937,211.2500940223777 335.1526967930029,211.2500940223777 332.64723032069975,206.9104987956882 335.1526967930029,202.5709035689987 340.16362973760937,202.5709035689987" fill="none" stroke="url(#grad)" stroke-width="1" />
<polygon points="328.6384839650146,206.9104987956882 326.1330174927114,211.2500940223777 321.12208454810497,211.2500940223777 318.6166180758018,206.9104987956882 321.12208454810497,202.5709035689987 326.1330174927114,202.5709035689987" fill="none" stroke="url(#grad)" stroke-width="1" />
<polygon points="321.6231778425656,194.75963216095755 319.11771137026244,199.09922738764706 314.106778425656,199.09922738764706 311.6013119533528,194.75963216095755 314.106778425656,190.42003693426804 319.11771137026244,190.42003693426804" fill="none" stroke="url(#grad)" stroke-width="1" />
<polygon points="328.6384839650146,182.6087655262269 326.1330174927114,186.94836075291641 321.12208454810497,186.94836075291641 318.6166180758018,182.6087655262269 321.12208454810497,178.2691702995374 326.1330174927114,178.2691702995374" fill="none" stroke="url(#grad)" stroke-width="1" />
<polygon points="342.66909620991254,182.6087655262269 340.16362973760937,186.94836075291641 335.1526967930029,186.94836075291641 332.64723032069975,182.6087655262269 335.1526967930029,178.2691702995374 340.16362973760937,178.2691702995374" fill="none" stroke="url(#grad)" stroke-width="1" />
<polygon points="305.38775510204084,194.75963216095755 298.37244897959187,206.9104987956882 284.3418367346939,206.9104987956882 277.32653061224494,194.75963216095755 284.3418367346939,182.6087655262269 298.37244897959187,182.6087655262269" fill="rgba(59, 130, 246, 0.1)" stroke="url(#grad)" stroke-width="2" />
<polygon points="310.39868804664724,194.75963216095755 307.89322157434407,199.09922738764706 302.8822886297376,199.09922738764706 300.37682215743445,194.75963216095755 302.8822886297376,190.42003693426804 307.89322157434407,190.42003693426804" fill="none" stroke="url(#grad)" stroke-width="1" />
<polygon points="303.38338192419826,206.9104987956882 300.8779154518951,211.2500940223777 295.86698250728864,211.2500940223777 293.36151603498547,206.9104987956882 295.86698250728864,202.5709035689987 300.8779154518951,202.5709035689987" fill="none" stroke="url(#grad)" stroke-width="1" />
<polygon points="289.3527696793003,206.9104987956882 286.84730320699714,211.2500940223777 281.8363702623907,211.2500940223777 279.3309037900875,206.9104987956882 281.8363702623907,202.5709035689987 286.84730320699714,202.5709035689987" fill="none" stroke="url(#grad)" stroke-width="1" />
<polygon points="282.33746355685133,194.75963216095755 279.83199708454816,199.09922738764706 274.8210641399417,199.09922738764706 272.31559766763854,194.75963216095755 274.8210641399417,190.42003693426804 279.83199708454816,190.42003693426804" fill="none" stroke="url(#grad)" stroke-width="1" />
<polygon points="289.3527696793003,182.6087655262269 286.84730320699714,186.94836075291641 281.8363702623907,186.94836075291641 279.3309037900875,182.6087655262269 281.8363702623907,178.2691702995374 286.84730320699714,178.2691702995374" fill="none" stroke="url(#grad)" stroke-width="1" />
<polygon points="303.38338192419826,182.6087655262269 300.8779154518951,186.94836075291641 295.86698250728864,186.94836075291641 293.36151603498547,182.6087655262269 295.86698250728864,178.2691702995374 300.8779154518951,178.2691702995374" fill="none" stroke="url(#grad)" stroke-width="1" />
<polygon points="285.7448979591837,160.73720558371176 278.7295918367347,172.8880722184424 264.69897959183675,172.8880722184424 257.68367346938777,160.73720558371176 264.69897959183675,148.5863389489811 278.7295918367347,148.5863389489811" fill="rgba(59, 130, 246, 0.1)" stroke="url(#grad)" stroke-width="2" />
<polygon points="290.75583090379007,160.73720558371176 288.2503644314869,165.07680081040127 283.23943148688045,165.07680081040127 280.7339650145773,160.73720558371176 283.23943148688045,156.39761035702224 288.2503644314869,156.39761035702224" fill="none" stroke="url(#grad)" stroke-width="1" />
<polygon points="283.7405247813411,172.8880722184424 281.2350583090379,177.2276674451319 276.2241253644315,177.2276674451319 273.7186588921283,172.8880722184424 276.2241253644315,168.5484769917529 281.2350583090379,168.5484769917529" fill="none" stroke="url(#grad)" stroke-width="1" />
<polygon points="269.70991253644314,172.8880722184424 267.20444606414,177.2276674451319 262.1935131195335,177.2276674451319 259.68804664723035,172.8880722184424 262.1935131195335,168.5484769917529 267.20444606414,168.5484769917529" fill="none" stroke="url(#grad)" stroke-width="1" />
<polygon points="262.69460641399417,160.73720558371176 260.189139941691,165.07680081040127 255.17820699708457,165.07680081040127 252.67274052478135,160.73720558371176 255.17820699708457,156.39761035702224 260.189139941691,156.39761035702224" fill="none" stroke="url(#grad)" stroke-width="1" />
<polygon points="269.70991253644314,148.5863389489811 267.20444606414,152.92593417567062 262.1935131195335,152.92593417567062 259.68804664723035,148.5863389489811 262.1935131195335,144.2467437222916 267.20444606414,144.2467437222916" fill="none" stroke="url(#grad)" stroke-width="1" />
<polygon points="283.7405247813411,148.5863389489811 281.2350583090379,152.92593417567062 276.2241253644315,152.92593417567062 273.7186588921283,148.5863389489811 276.2241253644315,144.2467437222916 281.2350583090379,144.2467437222916" fill="none" stroke="url(#grad)" stroke-width="1" />
<polygon points="305.3877551020408,126.71477900646596 298.3724489795918,138.8656456411966 284.34183673469386,138.8656456411966 277.3265306122449,126.71477900646596 284.34183673469386,114.56391237173531 298.3724489795918,114.56391237173531" fill="rgba(59, 130, 246, 0.1)" stroke="url(#grad)" stroke-width="2" />
<polygon points="310.3986880466472,126.71477900646596 307.893221574344,131.05437423315547 302.88228862973756,131.05437423315547 300.3768221574344,126.71477900646596 302.88228862973756,122.37518377977645 307.893221574344,122.37518377977645" fill="none" stroke="url(#grad)" stroke-width="1" />
<polygon points="303.3833819241982,138.8656456411966 300.87791545189503,143.20524086788612 295.8669825072886,143.20524086788612 293.3615160349854,138.8656456411966 295.8669825072886,134.5260504145071 300.87791545189503,134.5260504145071" fill="none" stroke="url(#grad)" stroke-width="1" />
<polygon points="289.35276967930025,138.8656456411966 286.8473032069971,143.20524086788612 281.83637026239063,143.20524086788612 279.33090379008746,138.8656456411966 281.83637026239063,134.5260504145071 286.8473032069971,134.5260504145071" fill="none" stroke="url(#grad)" stroke-width="1" />
<polygon points="282.3374635568513,126.71477900646596 279.8319970845481,131.05437423315547 274.82106413994165,131.05437423315547 272.3155976676385,126.71477900646596 274.82106413994165,122.37518377977645 279.8319970845481,122.37518377977645" fill="none" stroke="url(#grad)" stroke-width="1" />
<polygon points="289.35276967930025,114.56391237173531 286.8473032069971,118.90350759842482 281.83637026239063,118.90350759842482 279.33090379008746,114.56391237173531 281.83637026239063,110.2243171450458 286.8473032069971,110.2243171450458" fill="none" stroke="url(#grad)" stroke-width="1" />
<polygon points="303.3833819241982,114.56391237173531 300.87791545189503,118.90350759842482 295.8669825072886,118.90350759842482 293.3615160349854,114.56391237173531 295.8669825072886,110.2243171450458 300.87791545189503,110.2243171450458" fill="none" stroke="url(#grad)" stroke-width="1" />
<polygon points="344.6734693877551,126.71477900646596 337.65816326530614,138.8656456411966 323.6275510204082,138.8656456411966 316.6122448979592,126.71477900646596 323.6275510204082,114.56391237173531 337.65816326530614,114.56391237173531" fill="rgba(59, 130, 246, 0.1)" stroke="url(#grad)" stroke-width="2" />
<polygon points="349.6844023323615,126.71477900646596 347.17893586005835,131.05437423315547 342.1680029154519,131.05437423315547 339.6625364431487,126.71477900646596 342.1680029154519,122.37518377977645 347.17893586005835,122.37518377977645" fill="none" stroke="url(#grad)" stroke-width="1" />
<polygon points="342.66909620991254,138.8656456411966 340.16362973760937,143.20524086788612 335.1526967930029,143.20524086788612 332.64723032069975,138.8656456411966 335.1526967930029,134.5260504145071 340.16362973760937,134.5260504145071" fill="none" stroke="url(#grad)" stroke-width="1" />
<polygon points="328.6384839650146,138.8656456411966 326.1330174927114,143.20524086788612 321.12208454810497,143.20524086788612 318.6166180758018,138.8656456411966 321.12208454810497,134.5260504145071 326.1330174927114,134.5260504145071" fill="none" stroke="url(#grad)" stroke-width="1" />
<polygon points="321.6231778425656,126.71477900646596 319.11771137026244,131.05437423315547 314.106778425656,131.05437423315547 311.6013119533528,126.71477900646596 314.106778425656,122.37518377977645 319.11771137026244,122.37518377977645" fill="none" stroke="url(#grad)" stroke-width="1" />
<polygon points="328.6384839650146,114.56391237173531 326.1330174927114,118.90350759842482 321.12208454810497,118.90350759842482 318.6166180758018,114.56391237173531 321.12208454810497,110.2243171450458 326.1330174927114,110.2243171450458" fill="none" stroke="url(#grad)" stroke-width="1" />
<polygon points="342.66909620991254,114.56391237173531 340.16362973760937,118.90350759842482 335.1526967930029,118.90350759842482 332.64723032069975,114.56391237173531 335.1526967930029,110.2243171450458 340.16362973760937,110.2243171450458" fill="none" stroke="url(#grad)" stroke-width="1" />
</svg>